<svg width="74" height="49" viewBox="0 0 74 49" fill="none" xmlns="http://www.w3.org/2000/svg">
<path d="M40.3227 16.7481H38.5876V11.5429H40.3227V16.7481ZM40.3227 21.0858V25.4235C40.3227 25.6536 40.2313 25.8742 40.0686 26.0369C39.9059 26.1996 39.6852 26.291 39.4551 26.291H34.2499C34.0198 26.291 33.7992 26.1996 33.6365 26.0369C33.4738 25.8742 33.3824 25.6536 33.3824 25.4235V21.0858H35.1174V24.556H38.5876V21.0858H40.3227ZM33.3824 16.7481V11.5429H35.1174V16.7481H33.3824ZM40.3227 7.20522H38.5876V3.73507H35.1174V7.20522H33.3824V2.86754C33.3824 2.63745 33.4738 2.41679 33.6365 2.2541C33.7992 2.0914 34.0198 2 34.2499 2H39.4551C39.6852 2 39.9059 2.0914 40.0686 2.2541C40.2313 2.41679 40.3227 2.63745 40.3227 2.86754V7.20522Z" fill="#390A75"/>
<path d="M28.9579 7.20523L27.0268 9.37407L28.9562 11.5429H43.7928V7.20523H28.9579ZM28.5675 5.47015H44.6603C44.8904 5.47015 45.1111 5.56155 45.2738 5.72425C45.4365 5.88694 45.5279 6.10761 45.5279 6.33769V12.4104C45.5279 12.6405 45.4365 12.8612 45.2738 13.0239C45.1111 13.1866 44.8904 13.278 44.6603 13.278H28.5675C28.4449 13.278 28.3237 13.2521 28.2118 13.2018C28.1 13.1516 28 13.0782 27.9186 12.9865L25.2189 9.95011C25.0779 9.79135 25 9.5864 25 9.37407C25 9.16174 25.0779 8.95679 25.2189 8.79803L27.9186 5.76165C28 5.66996 28.1 5.59657 28.2118 5.54633C28.3237 5.49608 28.4449 5.47012 28.5675 5.47015ZM46.9697 18.917L45.0421 21.0858H30.2055V16.7481H45.0403L46.9697 18.917ZM45.4307 15.0131H29.3397C29.1096 15.0131 28.8889 15.1045 28.7262 15.2672C28.5635 15.4298 28.4721 15.6505 28.4721 15.8806V21.9534C28.4721 22.1834 28.5635 22.4041 28.7262 22.5668C28.8889 22.7295 29.1096 22.8209 29.3397 22.8209H45.4325C45.5551 22.8209 45.6763 22.795 45.7882 22.7447C45.9 22.6945 46 22.6211 46.0814 22.5294L48.7811 19.493C48.9221 19.3343 49 19.1293 49 18.917C49 18.7046 48.9221 18.4997 48.7811 18.3409L46.0814 15.3046C46 15.2129 45.9 15.1395 45.7882 15.0892C45.6763 15.039 45.5551 15.013 45.4325 15.0131H45.4307Z" fill="#390A75"/>
<path d="M11.0346 33.312V43H9.76059V35.776L6.54059 43H5.64459L2.41059 35.762V43H1.13659V33.312H2.50859L6.09259 41.32L9.67659 33.312H11.0346ZM12.7192 39.136C12.7192 38.352 12.8779 37.666 13.1952 37.078C13.5125 36.4807 13.9465 36.0187 14.4972 35.692C15.0572 35.3653 15.6779 35.202 16.3592 35.202C17.0312 35.202 17.6145 35.3467 18.1092 35.636C18.6039 35.9253 18.9725 36.2893 19.2152 36.728V35.328H20.5032V43H19.2152V41.572C18.9632 42.02 18.5852 42.3933 18.0812 42.692C17.5865 42.9813 17.0079 43.126 16.3452 43.126C15.6639 43.126 15.0479 42.958 14.4972 42.622C13.9465 42.286 13.5125 41.8147 13.1952 41.208C12.8779 40.6013 12.7192 39.9107 12.7192 39.136ZM19.2152 39.15C19.2152 38.5713 19.0985 38.0673 18.8652 37.638C18.6319 37.2087 18.3145 36.882 17.9132 36.658C17.5212 36.4247 17.0872 36.308 16.6112 36.308C16.1352 36.308 15.7012 36.42 15.3092 36.644C14.9172 36.868 14.6045 37.1947 14.3712 37.624C14.1379 38.0533 14.0212 38.5573 14.0212 39.136C14.0212 39.724 14.1379 40.2373 14.3712 40.676C14.6045 41.1053 14.9172 41.4367 15.3092 41.67C15.7012 41.894 16.1352 42.006 16.6112 42.006C17.0872 42.006 17.5212 41.894 17.9132 41.67C18.3145 41.4367 18.6319 41.1053 18.8652 40.676C19.0985 40.2373 19.2152 39.7287 19.2152 39.15ZM23.3421 34.082C23.0995 34.082 22.8941 33.998 22.7261 33.83C22.5675 33.662 22.4881 33.4567 22.4881 33.214C22.4881 32.9713 22.5675 32.766 22.7261 32.598C22.8941 32.43 23.0995 32.346 23.3421 32.346C23.5848 32.346 23.7855 32.43 23.9441 32.598C24.1121 32.766 24.1961 32.9713 24.1961 33.214C24.1961 33.4567 24.1121 33.662 23.9441 33.83C23.7855 33.998 23.5848 34.082 23.3421 34.082ZM23.9721 44.666C23.9721 45.3473 23.7995 45.8467 23.4541 46.164C23.1088 46.4813 22.6048 46.64 21.9421 46.64H21.2001V45.562H21.7321C22.0868 45.562 22.3341 45.492 22.4741 45.352C22.6235 45.212 22.6981 44.974 22.6981 44.638V35.328H23.9721V44.666ZM29.4748 43.126C28.7561 43.126 28.1028 42.9627 27.5148 42.636C26.9361 42.3093 26.4788 41.8473 26.1428 41.25C25.8161 40.6433 25.6528 39.9433 25.6528 39.15C25.6528 38.366 25.8208 37.6753 26.1568 37.078C26.5021 36.4713 26.9688 36.0093 27.5568 35.692C28.1448 35.3653 28.8028 35.202 29.5308 35.202C30.2588 35.202 30.9168 35.3653 31.5048 35.692C32.0928 36.0093 32.5548 36.4667 32.8908 37.064C33.2361 37.6613 33.4088 38.3567 33.4088 39.15C33.4088 39.9433 33.2314 40.6433 32.8768 41.25C32.5314 41.8473 32.0601 42.3093 31.4628 42.636C30.8654 42.9627 30.2028 43.126 29.4748 43.126ZM29.4748 42.006C29.9321 42.006 30.3614 41.8987 30.7628 41.684C31.1641 41.4693 31.4861 41.1473 31.7288 40.718C31.9808 40.2887 32.1068 39.766 32.1068 39.15C32.1068 38.534 31.9854 38.0113 31.7428 37.582C31.5001 37.1527 31.1828 36.8353 30.7908 36.63C30.3988 36.4153 29.9741 36.308 29.5168 36.308C29.0501 36.308 28.6208 36.4153 28.2288 36.63C27.8461 36.8353 27.5381 37.1527 27.3048 37.582C27.0714 38.0113 26.9548 38.534 26.9548 39.15C26.9548 39.7753 27.0668 40.3027 27.2908 40.732C27.5241 41.1613 27.8321 41.4833 28.2148 41.698C28.5974 41.9033 29.0174 42.006 29.4748 42.006ZM36.3579 36.574C36.5819 36.1353 36.8992 35.7947 37.3099 35.552C37.7299 35.3093 38.2385 35.188 38.8359 35.188V36.504H38.4999C37.0719 36.504 36.3579 37.2787 36.3579 38.828V43H35.0839V35.328H36.3579V36.574ZM53.9369 33.312V43H52.6629V35.776L49.4429 43H48.5469L45.3129 35.762V43H44.0389V33.312H45.4109L48.9949 41.32L52.5789 33.312H53.9369ZM55.6215 39.136C55.6215 38.352 55.7802 37.666 56.0975 37.078C56.4149 36.4807 56.8489 36.0187 57.3995 35.692C57.9595 35.3653 58.5802 35.202 59.2615 35.202C59.9335 35.202 60.5169 35.3467 61.0115 35.636C61.5062 35.9253 61.8749 36.2893 62.1175 36.728V35.328H63.4055V43H62.1175V41.572C61.8655 42.02 61.4875 42.3933 60.9835 42.692C60.4889 42.9813 59.9102 43.126 59.2475 43.126C58.5662 43.126 57.9502 42.958 57.3995 42.622C56.8489 42.286 56.4149 41.8147 56.0975 41.208C55.7802 40.6013 55.6215 39.9107 55.6215 39.136ZM62.1175 39.15C62.1175 38.5713 62.0009 38.0673 61.7675 37.638C61.5342 37.2087 61.2169 36.882 60.8155 36.658C60.4235 36.4247 59.9895 36.308 59.5135 36.308C59.0375 36.308 58.6035 36.42 58.2115 36.644C57.8195 36.868 57.5069 37.1947 57.2735 37.624C57.0402 38.0533 56.9235 38.5573 56.9235 39.136C56.9235 39.724 57.0402 40.2373 57.2735 40.676C57.5069 41.1053 57.8195 41.4367 58.2115 41.67C58.6035 41.894 59.0375 42.006 59.5135 42.006C59.9895 42.006 60.4235 41.894 60.8155 41.67C61.2169 41.4367 61.5342 41.1053 61.7675 40.676C62.0009 40.2373 62.1175 39.7287 62.1175 39.15ZM66.8325 36.742C67.0845 36.3033 67.4578 35.9393 67.9525 35.65C68.4565 35.3513 69.0398 35.202 69.7025 35.202C70.3838 35.202 70.9998 35.3653 71.5505 35.692C72.1105 36.0187 72.5491 36.4807 72.8665 37.078C73.1838 37.666 73.3425 38.352 73.3425 39.136C73.3425 39.9107 73.1838 40.6013 72.8665 41.208C72.5491 41.8147 72.1105 42.286 71.5505 42.622C70.9998 42.958 70.3838 43.126 69.7025 43.126C69.0491 43.126 68.4705 42.9813 67.9665 42.692C67.4718 42.3933 67.0938 42.0247 66.8325 41.586V46.64H65.5585V35.328H66.8325V36.742ZM72.0405 39.136C72.0405 38.5573 71.9238 38.0533 71.6905 37.624C71.4571 37.1947 71.1398 36.868 70.7385 36.644C70.3465 36.42 69.9125 36.308 69.4365 36.308C68.9698 36.308 68.5358 36.4247 68.1345 36.658C67.7425 36.882 67.4251 37.2133 67.1825 37.652C66.9491 38.0813 66.8325 38.5807 66.8325 39.15C66.8325 39.7287 66.9491 40.2373 67.1825 40.676C67.4251 41.1053 67.7425 41.4367 68.1345 41.67C68.5358 41.894 68.9698 42.006 69.4365 42.006C69.9125 42.006 70.3465 41.894 70.7385 41.67C71.1398 41.4367 71.4571 41.1053 71.6905 40.676C71.9238 40.2373 72.0405 39.724 72.0405 39.136Z" fill="#390A75"/>
</svg>
