<svg width="40" height="40" viewBox="0 0 40 40" fill="none" xmlns="http://www.w3.org/2000/svg">
<path d="M15.0592 26.3924L20.2072 24.1788L25.3551 26.3924V13.0592H15.0592V26.3924ZM14.4414 28.9149C14.0982 29.0522 13.7722 29.022 13.4633 28.8243C13.1544 28.6267 13 28.3397 13 27.9636V13.0592C13 12.4929 13.2018 12.008 13.6054 11.6044C14.009 11.2008 14.4936 10.9993 15.0592 11H25.3551C25.9214 11 26.4063 11.2018 26.8099 11.6054C27.2135 12.009 27.415 12.4936 27.4143 13.0592V27.9626C27.4143 28.3401 27.2599 28.6277 26.951 28.8254C26.6421 29.023 26.3161 29.0529 25.9729 28.9149L20.2072 26.4439L14.4414 28.9149Z" fill="#390A75"/>
</svg>
