<svg width="264" height="98" viewBox="0 0 264 98" fill="none" xmlns="http://www.w3.org/2000/svg">
<g clip-path="url(#clip0_1011_41402)">
<path d="M99.0001 45.4C96.8401 45.4 94.813 45 92.92 44.2C91.053 43.3733 89.4131 42.24 88.0001 40.8C86.6131 39.3333 85.5201 37.6267 84.7201 35.68C83.9468 33.7333 83.56 31.6267 83.56 29.36C83.56 27.12 83.9468 25.04 84.7201 23.12C85.5201 21.1733 86.6131 19.48 88.0001 18.04C89.4131 16.5733 91.053 15.4267 92.92 14.6C94.787 13.7733 96.8131 13.36 99.0001 13.36C101.053 13.36 102.813 13.6267 104.28 14.16C105.773 14.6933 107.267 15.5733 108.76 16.8C108.973 16.96 109.133 17.1333 109.24 17.32C109.373 17.48 109.453 17.6533 109.48 17.84C109.533 18 109.56 18.2 109.56 18.44C109.56 18.9467 109.373 19.3733 109 19.72C108.653 20.04 108.227 20.2267 107.72 20.28C107.213 20.3067 106.72 20.1333 106.24 19.76C105.253 18.9067 104.227 18.2533 103.16 17.8C102.12 17.3467 100.733 17.12 99.0001 17.12C97.4271 17.12 95.947 17.44 94.56 18.08C93.173 18.72 91.947 19.6 90.88 20.72C89.84 21.84 89.0271 23.1467 88.4401 24.64C87.8531 26.1067 87.56 27.68 87.56 29.36C87.56 31.0667 87.8531 32.6667 88.4401 34.16C89.0271 35.6267 89.84 36.92 90.88 38.04C91.947 39.16 93.173 40.04 94.56 40.68C95.947 41.2933 97.4271 41.6 99.0001 41.6C100.36 41.6 101.64 41.3733 102.84 40.92C104.067 40.44 105.24 39.7867 106.36 38.96C106.84 38.6133 107.307 38.4667 107.76 38.52C108.24 38.5467 108.64 38.7333 108.96 39.08C109.28 39.4 109.44 39.8533 109.44 40.44C109.44 40.7067 109.387 40.9733 109.28 41.24C109.173 41.48 109.013 41.7067 108.8 41.92C107.36 43.0667 105.813 43.9333 104.16 44.52C102.533 45.1067 100.813 45.4 99.0001 45.4ZM130.534 45.4C128.187 45.4 126.04 45.0133 124.094 44.24C122.147 43.44 120.467 42.3333 119.054 40.92C117.667 39.48 116.587 37.7867 115.814 35.84C115.04 33.8667 114.654 31.7067 114.654 29.36C114.654 27.0133 115.04 24.8667 115.814 22.92C116.587 20.9733 117.667 19.2933 119.054 17.88C120.467 16.44 122.147 15.3333 124.094 14.56C126.04 13.76 128.187 13.36 130.534 13.36C132.88 13.36 135.014 13.76 136.934 14.56C138.88 15.3333 140.56 16.44 141.974 17.88C143.387 19.2933 144.48 20.9733 145.254 22.92C146.027 24.8667 146.414 27.0133 146.414 29.36C146.414 31.7067 146.027 33.8667 145.254 35.84C144.48 37.7867 143.387 39.48 141.974 40.92C140.56 42.3333 138.88 43.44 136.934 44.24C135.014 45.0133 132.88 45.4 130.534 45.4ZM130.534 41.64C132.267 41.64 133.854 41.3333 135.294 40.72C136.76 40.08 138.027 39.2133 139.094 38.12C140.16 37 140.974 35.6933 141.534 34.2C142.12 32.7067 142.414 31.0933 142.414 29.36C142.414 27.6267 142.12 26.0133 141.534 24.52C140.974 23.0267 140.16 21.7333 139.094 20.64C138.027 19.52 136.76 18.6533 135.294 18.04C133.854 17.4267 132.267 17.12 130.534 17.12C128.8 17.12 127.2 17.4267 125.734 18.04C124.294 18.6533 123.04 19.52 121.974 20.64C120.934 21.7333 120.12 23.0267 119.534 24.52C118.947 26.0133 118.654 27.6267 118.654 29.36C118.654 31.0933 118.947 32.7067 119.534 34.2C120.12 35.6933 120.934 37 121.974 38.12C123.04 39.2133 124.294 40.08 125.734 40.72C127.2 41.3333 128.8 41.64 130.534 41.64ZM166.01 45.64C163.45 45.64 161.183 45.1733 159.21 44.24C157.236 43.28 155.69 41.96 154.57 40.28C153.476 38.6 152.93 36.68 152.93 34.52V15.84C152.93 15.2267 153.13 14.7333 153.53 14.36C153.93 13.96 154.423 13.76 155.01 13.76C155.623 13.76 156.116 13.96 156.49 14.36C156.89 14.7333 157.09 15.2267 157.09 15.84V34.52C157.09 35.96 157.463 37.24 158.21 38.36C158.983 39.4533 160.036 40.32 161.37 40.96C162.73 41.5733 164.276 41.88 166.01 41.88C167.69 41.88 169.17 41.5733 170.45 40.96C171.756 40.32 172.77 39.4533 173.49 38.36C174.236 37.24 174.61 35.96 174.61 34.52V15.84C174.61 15.2267 174.81 14.7333 175.21 14.36C175.61 13.96 176.103 13.76 176.69 13.76C177.303 13.76 177.796 13.96 178.17 14.36C178.543 14.7333 178.73 15.2267 178.73 15.84V34.52C178.73 36.68 178.183 38.6 177.09 40.28C176.023 41.96 174.53 43.28 172.61 44.24C170.69 45.1733 168.49 45.64 166.01 45.64ZM188.799 45C188.212 45 187.719 44.8 187.319 44.4C186.919 44 186.719 43.5067 186.719 42.92V15.84C186.719 15.2267 186.919 14.7333 187.319 14.36C187.719 13.96 188.212 13.76 188.799 13.76H195.999C197.999 13.76 199.772 14.1867 201.319 15.04C202.865 15.8667 204.065 17.0133 204.919 18.48C205.799 19.9467 206.239 21.6533 206.239 23.6C206.239 25.4133 205.799 27.0267 204.919 28.44C204.065 29.8533 202.865 30.96 201.319 31.76C199.772 32.56 197.999 32.96 195.999 32.96H190.879V42.92C190.879 43.5067 190.679 44 190.279 44.4C189.905 44.8 189.412 45 188.799 45ZM205.399 45C205.025 45 204.679 44.92 204.359 44.76C204.065 44.6 203.812 44.3467 203.599 44L196.399 32.4L200.439 31.24L206.999 41.8C207.479 42.5733 207.545 43.3067 207.199 44C206.852 44.6667 206.252 45 205.399 45ZM190.879 29.12H195.999C197.225 29.12 198.305 28.8933 199.239 28.44C200.172 27.96 200.905 27.3067 201.439 26.48C201.972 25.6267 202.239 24.6667 202.239 23.6C202.239 22.4267 201.972 21.3867 201.439 20.48C200.905 19.5733 200.172 18.8667 199.239 18.36C198.305 17.8533 197.225 17.6 195.999 17.6H190.879V29.12ZM221.912 45.4C220.206 45.4 218.579 45.1333 217.032 44.6C215.486 44.0667 214.139 43.32 212.992 42.36C211.846 41.4 211.006 40.2933 210.472 39.04C210.206 38.48 210.206 37.96 210.472 37.48C210.766 37 211.246 36.6933 211.912 36.56C212.392 36.4533 212.859 36.5333 213.312 36.8C213.792 37.04 214.152 37.4133 214.392 37.92C214.712 38.5867 215.232 39.2 215.952 39.76C216.699 40.32 217.592 40.7733 218.632 41.12C219.672 41.4667 220.766 41.64 221.912 41.64C223.192 41.64 224.366 41.44 225.432 41.04C226.526 40.64 227.406 40.0667 228.072 39.32C228.739 38.5467 229.072 37.6 229.072 36.48C229.072 35.0667 228.512 33.8 227.392 32.68C226.299 31.56 224.486 30.8667 221.952 30.6C218.646 30.28 216.046 29.3067 214.152 27.68C212.259 26.0533 211.312 24.04 211.312 21.64C211.312 19.88 211.806 18.3867 212.792 17.16C213.779 15.9333 215.112 15 216.792 14.36C218.499 13.72 220.392 13.4 222.472 13.4C224.099 13.4 225.512 13.6267 226.712 14.08C227.939 14.5333 229.006 15.16 229.912 15.96C230.819 16.76 231.606 17.7067 232.272 18.8C232.646 19.3867 232.792 19.9467 232.712 20.48C232.659 20.9867 232.406 21.3867 231.952 21.68C231.446 22 230.899 22.0667 230.312 21.88C229.726 21.6933 229.286 21.3467 228.992 20.84C228.566 20.0667 228.046 19.4133 227.432 18.88C226.819 18.3467 226.099 17.9333 225.272 17.64C224.446 17.32 223.472 17.16 222.352 17.16C220.379 17.1333 218.726 17.5067 217.392 18.28C216.059 19.0267 215.392 20.1867 215.392 21.76C215.392 22.56 215.592 23.3333 215.992 24.08C216.419 24.8 217.179 25.4267 218.272 25.96C219.392 26.4933 220.992 26.8667 223.072 27.08C226.246 27.4 228.712 28.3733 230.472 30C232.259 31.6 233.152 33.72 233.152 36.36C233.152 37.88 232.832 39.2 232.192 40.32C231.579 41.44 230.739 42.3867 229.672 43.16C228.632 43.9067 227.432 44.4667 226.072 44.84C224.739 45.2133 223.352 45.4 221.912 45.4ZM241.611 45C241.025 45 240.531 44.8 240.131 44.4C239.731 44 239.531 43.5067 239.531 42.92V15.84C239.531 15.2267 239.731 14.7333 240.131 14.36C240.531 13.96 241.025 13.76 241.611 13.76H259.691C260.305 13.76 260.798 13.9467 261.171 14.32C261.545 14.6667 261.731 15.1333 261.731 15.72C261.731 16.28 261.545 16.7333 261.171 17.08C260.798 17.4267 260.305 17.6 259.691 17.6H243.691V27.32H255.171C255.785 27.32 256.278 27.5067 256.651 27.88C257.025 28.2267 257.211 28.68 257.211 29.24C257.211 29.8 257.025 30.2667 256.651 30.64C256.278 30.9867 255.785 31.16 255.171 31.16H243.691V41.16H259.691C260.305 41.16 260.798 41.3333 261.171 41.68C261.545 42.0267 261.731 42.48 261.731 43.04C261.731 43.6267 261.545 44.1067 261.171 44.48C260.798 44.8267 260.305 45 259.691 45H241.611ZM94.92 90.4C93.213 90.4 91.5871 90.1333 90.0401 89.6C88.4931 89.0667 87.1471 88.32 86.0001 87.36C84.8534 86.4 84.0134 85.2933 83.4801 84.04C83.2134 83.48 83.2134 82.96 83.4801 82.48C83.7734 82 84.2533 81.6933 84.92 81.56C85.4 81.4533 85.8671 81.5333 86.3201 81.8C86.8001 82.04 87.1601 82.4133 87.4001 82.92C87.7201 83.5867 88.2401 84.2 88.9601 84.76C89.7071 85.32 90.6 85.7733 91.64 86.12C92.68 86.4667 93.773 86.64 94.92 86.64C96.2 86.64 97.3731 86.44 98.4401 86.04C99.5331 85.64 100.413 85.0667 101.08 84.32C101.747 83.5467 102.08 82.6 102.08 81.48C102.08 80.0667 101.52 78.8 100.4 77.68C99.3071 76.56 97.493 75.8667 94.96 75.6C91.653 75.28 89.0531 74.3067 87.1601 72.68C85.2671 71.0533 84.3201 69.04 84.3201 66.64C84.3201 64.88 84.8134 63.3867 85.8001 62.16C86.7871 60.9333 88.1201 60 89.8001 59.36C91.5071 58.72 93.4001 58.4 95.4801 58.4C97.1071 58.4 98.5201 58.6267 99.7201 59.08C100.947 59.5333 102.013 60.16 102.92 60.96C103.827 61.76 104.613 62.7067 105.28 63.8C105.653 64.3867 105.8 64.9467 105.72 65.48C105.667 65.9867 105.413 66.3867 104.96 66.68C104.453 67 103.907 67.0667 103.32 66.88C102.733 66.6933 102.293 66.3467 102 65.84C101.573 65.0667 101.053 64.4133 100.44 63.88C99.8271 63.3467 99.107 62.9333 98.28 62.64C97.453 62.32 96.4801 62.16 95.3601 62.16C93.3871 62.1333 91.7331 62.5067 90.4001 63.28C89.0671 64.0267 88.4001 65.1867 88.4001 66.76C88.4001 67.56 88.6001 68.3333 89.0001 69.08C89.4271 69.8 90.187 70.4267 91.28 70.96C92.4 71.4933 94.0001 71.8667 96.0801 72.08C99.2531 72.4 101.72 73.3733 103.48 75C105.267 76.6 106.16 78.72 106.16 81.36C106.16 82.88 105.84 84.2 105.2 85.32C104.587 86.44 103.747 87.3867 102.68 88.16C101.64 88.9067 100.44 89.4667 99.0801 89.84C97.7471 90.2133 96.36 90.4 94.92 90.4ZM115.299 90C114.552 90 113.979 89.68 113.579 89.04C113.179 88.4 113.139 87.72 113.459 87L124.699 60.16C125.099 59.2267 125.752 58.76 126.659 58.76C127.619 58.76 128.272 59.2267 128.619 60.16L139.899 87.08C140.192 87.8267 140.139 88.5067 139.739 89.12C139.366 89.7067 138.792 90 138.019 90C137.619 90 137.232 89.8933 136.859 89.68C136.512 89.44 136.259 89.12 136.099 88.72L126.179 64.08H127.299L117.219 88.72C117.032 89.1467 116.752 89.4667 116.379 89.68C116.032 89.8933 115.672 90 115.299 90ZM117.419 83.12L119.019 79.68H134.699L136.299 83.12H117.419ZM156.181 90C155.328 90 154.701 89.56 154.301 88.68L142.581 61.88C142.208 60.9733 142.168 60.2267 142.461 59.64C142.754 59.0533 143.314 58.76 144.141 58.76C145.074 58.76 145.714 59.1733 146.061 60L156.341 84.68H155.901L166.381 60C166.594 59.52 166.834 59.2 167.101 59.04C167.394 58.8533 167.781 58.76 168.261 58.76C169.061 58.76 169.608 59.0533 169.901 59.64C170.221 60.2 170.221 60.8267 169.901 61.52L158.061 88.68C157.874 89.1067 157.621 89.44 157.301 89.68C157.008 89.8933 156.634 90 156.181 90ZM181.033 90C180.446 90 179.953 89.8 179.553 89.4C179.153 89 178.953 88.5067 178.953 87.92V60.84C178.953 60.2267 179.153 59.7333 179.553 59.36C179.953 58.96 180.446 58.76 181.033 58.76H199.113C199.726 58.76 200.22 58.9467 200.593 59.32C200.966 59.6667 201.153 60.1333 201.153 60.72C201.153 61.28 200.966 61.7333 200.593 62.08C200.22 62.4267 199.726 62.6 199.113 62.6H183.113V72.32H194.593C195.206 72.32 195.7 72.5067 196.073 72.88C196.446 73.2267 196.633 73.68 196.633 74.24C196.633 74.8 196.446 75.2667 196.073 75.64C195.7 75.9867 195.206 76.16 194.593 76.16H183.113V86.16H199.113C199.726 86.16 200.22 86.3333 200.593 86.68C200.966 87.0267 201.153 87.48 201.153 88.04C201.153 88.6267 200.966 89.1067 200.593 89.48C200.22 89.8267 199.726 90 199.113 90H181.033ZM213.041 90C212.454 90 211.961 89.8 211.561 89.4C211.161 89 210.961 88.5067 210.961 87.92V60.84C210.961 60.2267 211.161 59.7333 211.561 59.36C211.961 58.96 212.454 58.76 213.041 58.76H220.241C222.241 58.76 224.014 59.1867 225.561 60.04C227.108 60.8667 228.308 62.0133 229.161 63.48C230.041 64.9467 230.481 66.6533 230.481 68.6C230.481 70.4133 230.041 72.0267 229.161 73.44C228.308 74.8533 227.108 75.96 225.561 76.76C224.014 77.56 222.241 77.96 220.241 77.96H215.121V87.92C215.121 88.5067 214.921 89 214.521 89.4C214.148 89.8 213.654 90 213.041 90ZM229.641 90C229.268 90 228.921 89.92 228.601 89.76C228.308 89.6 228.054 89.3467 227.841 89L220.641 77.4L224.681 76.24L231.241 86.8C231.721 87.5733 231.788 88.3067 231.441 89C231.094 89.6667 230.494 90 229.641 90ZM215.121 74.12H220.241C221.468 74.12 222.548 73.8933 223.481 73.44C224.414 72.96 225.148 72.3067 225.681 71.48C226.214 70.6267 226.481 69.6667 226.481 68.6C226.481 67.4267 226.214 66.3867 225.681 65.48C225.148 64.5733 224.414 63.8667 223.481 63.36C222.548 62.8533 221.468 62.6 220.241 62.6H215.121V74.12ZM250.154 90.4C248.448 90.4 246.821 90.1333 245.274 89.6C243.728 89.0667 242.381 88.32 241.234 87.36C240.088 86.4 239.248 85.2933 238.714 84.04C238.448 83.48 238.448 82.96 238.714 82.48C239.008 82 239.488 81.6933 240.154 81.56C240.634 81.4533 241.101 81.5333 241.554 81.8C242.034 82.04 242.394 82.4133 242.634 82.92C242.954 83.5867 243.474 84.2 244.194 84.76C244.941 85.32 245.834 85.7733 246.874 86.12C247.914 86.4667 249.008 86.64 250.154 86.64C251.434 86.64 252.608 86.44 253.674 86.04C254.768 85.64 255.648 85.0667 256.314 84.32C256.981 83.5467 257.314 82.6 257.314 81.48C257.314 80.0667 256.754 78.8 255.634 77.68C254.541 76.56 252.728 75.8667 250.194 75.6C246.888 75.28 244.288 74.3067 242.394 72.68C240.501 71.0533 239.554 69.04 239.554 66.64C239.554 64.88 240.048 63.3867 241.034 62.16C242.021 60.9333 243.354 60 245.034 59.36C246.741 58.72 248.634 58.4 250.714 58.4C252.341 58.4 253.754 58.6267 254.954 59.08C256.181 59.5333 257.248 60.16 258.154 60.96C259.061 61.76 259.848 62.7067 260.514 63.8C260.888 64.3867 261.034 64.9467 260.954 65.48C260.901 65.9867 260.648 66.3867 260.194 66.68C259.688 67 259.141 67.0667 258.554 66.88C257.968 66.6933 257.528 66.3467 257.234 65.84C256.808 65.0667 256.288 64.4133 255.674 63.88C255.061 63.3467 254.341 62.9333 253.514 62.64C252.688 62.32 251.714 62.16 250.594 62.16C248.621 62.1333 246.968 62.5067 245.634 63.28C244.301 64.0267 243.634 65.1867 243.634 66.76C243.634 67.56 243.834 68.3333 244.234 69.08C244.661 69.8 245.421 70.4267 246.514 70.96C247.634 71.4933 249.234 71.8667 251.314 72.08C254.488 72.4 256.954 73.3733 258.714 75C260.501 76.6 261.394 78.72 261.394 81.36C261.394 82.88 261.074 84.2 260.434 85.32C259.821 86.44 258.981 87.3867 257.914 88.16C256.874 88.9067 255.674 89.4667 254.314 89.84C252.981 90.2133 251.594 90.4 250.154 90.4Z" fill="#FCFCFC"/>
<path d="M92.9201 44.2L92.5151 45.1143L92.5231 45.1178L92.5311 45.1211L92.9201 44.2ZM88.0001 40.8L87.2731 41.487L87.2801 41.4938L87.2861 41.5005L88.0001 40.8ZM84.7201 35.68L83.7907 36.0492L83.7952 36.0601L84.7201 35.68ZM84.7201 23.12L83.7951 22.7399L83.7925 22.7464L84.7201 23.12ZM104.28 14.16L103.938 15.0998L103.944 15.1017L104.28 14.16ZM108.76 16.8L108.125 17.5727L108.142 17.5867L108.16 17.6L108.76 16.8ZM109.24 17.32L108.372 17.8161L108.415 17.8926L108.472 17.9602L109.24 17.32ZM109.48 17.84L108.49 17.9814L108.503 18.0707L108.531 18.1562L109.48 17.84ZM109 19.72L109.678 20.4548L109.68 20.4528L109 19.72ZM107.72 20.28L107.773 21.2786L107.799 21.2772L107.825 21.2745L107.72 20.28ZM106.24 19.76L105.586 20.5164L105.606 20.5334L105.626 20.5494L106.24 19.76ZM103.16 17.8L102.76 18.7167L102.769 18.7203L103.16 17.8ZM90.8801 20.72L90.1561 20.0303L90.1471 20.0395L90.8801 20.72ZM88.4401 24.64L89.3681 25.0114L89.3711 25.0057L88.4401 24.64ZM88.4401 34.16L87.5091 34.5257L87.5121 34.5314L88.4401 34.16ZM90.8801 38.04L90.1471 38.7205L90.1561 38.7297L90.8801 38.04ZM94.5601 40.68L94.1411 41.588L94.1481 41.5913L94.1551 41.5945L94.5601 40.68ZM102.84 40.92L103.193 41.8555L103.204 41.8512L102.84 40.92ZM106.36 38.96L105.774 38.1493L105.766 38.1554L106.36 38.96ZM107.76 38.52L107.643 39.5132L107.674 39.5168L107.705 39.5185L107.76 38.52ZM108.96 39.08L108.225 39.7583L108.239 39.773L108.253 39.7871L108.96 39.08ZM109.28 41.24L110.194 41.6461L110.201 41.6289L110.208 41.6114L109.28 41.24ZM108.8 41.92L109.423 42.7023L109.467 42.6671L109.507 42.6271L108.8 41.92ZM104.16 44.52L103.826 43.5776L103.821 43.5793L104.16 44.52ZM99.0001 44.4C96.9671 44.4 95.0731 44.0242 93.3091 43.2789L92.5311 45.1211C94.5541 45.9758 96.7131 46.4 99.0001 46.4V44.4ZM93.3251 43.2857C91.5721 42.5095 90.0371 41.4483 88.7141 40.0995L87.2861 41.5005C88.7891 43.0317 90.5341 44.2371 92.5151 45.1143L93.3251 43.2857ZM88.7271 40.113C87.4281 38.7394 86.4001 37.1379 85.6451 35.2999L83.7952 36.0601C84.6398 38.1155 85.7991 39.9273 87.2731 41.487L88.7271 40.113ZM85.6491 35.3108C84.9265 33.491 84.5601 31.5107 84.5601 29.36H82.5601C82.5601 31.7426 82.967 33.9757 83.7907 36.0492L85.6491 35.3108ZM84.5601 29.36C84.5601 27.2374 84.926 25.2854 85.6481 23.4936L83.7925 22.7464C82.9675 24.7946 82.5601 27.0026 82.5601 29.36H84.5601ZM85.6451 23.5001C86.4001 21.6637 87.4261 20.0782 88.7201 18.7336L87.2801 17.3461C85.8011 18.8815 84.6404 20.683 83.7951 22.7399L85.6451 23.5001ZM88.7201 18.7336C90.0431 17.3603 91.5761 16.2887 93.3251 15.5143L92.5151 13.6856C90.5301 14.5646 88.7831 15.786 87.2801 17.3461L88.7201 18.7336ZM93.3251 15.5143C95.0551 14.7481 96.9431 14.36 99.0001 14.36V12.36C96.6841 12.36 94.5181 12.7986 92.5151 13.6856L93.3251 15.5143ZM99.0001 14.36C100.972 14.36 102.61 14.6166 103.938 15.0998L104.622 13.2202C103.017 12.6367 101.135 12.36 99.0001 12.36V14.36ZM103.944 15.1017C105.308 15.5889 106.702 16.4037 108.125 17.5727L109.395 16.0273C107.831 14.743 106.239 13.7977 104.616 13.2183L103.944 15.1017ZM108.16 17.6C108.29 17.6972 108.347 17.7728 108.372 17.8161L110.108 16.8239C109.92 16.4938 109.657 16.2228 109.36 16L108.16 17.6ZM108.472 17.9602C108.487 17.979 108.492 17.9888 108.492 17.9891C108.492 17.9894 108.492 17.9885 108.491 17.9866C108.491 17.9846 108.49 17.9828 108.49 17.9814L110.47 17.6986C110.414 17.3095 110.247 16.9669 110.008 16.6798L108.472 17.9602ZM108.531 18.1562C108.54 18.1811 108.56 18.2659 108.56 18.44H110.56C110.56 18.1341 110.527 17.8189 110.429 17.5238L108.531 18.1562ZM108.56 18.44C108.56 18.6669 108.49 18.8286 108.32 18.9872L109.68 20.4528C110.256 19.9181 110.56 19.2265 110.56 18.44H108.56ZM108.322 18.9852C108.146 19.1472 107.926 19.2528 107.615 19.2855L107.825 21.2745C108.527 21.2005 109.16 20.9328 109.678 20.4548L108.322 18.9852ZM107.667 19.2814C107.447 19.293 107.184 19.2271 106.854 18.9706L105.626 20.5494C106.256 21.0396 106.98 21.3203 107.773 21.2786L107.667 19.2814ZM106.894 19.0036C105.839 18.0907 104.725 17.3784 103.551 16.8797L102.769 18.7203C103.729 19.1283 104.668 19.7226 105.586 20.5164L106.894 19.0036ZM103.56 16.8833C102.345 16.3538 100.805 16.12 99.0001 16.12V18.12C100.661 18.12 101.895 18.3395 102.76 18.7167L103.56 16.8833ZM99.0001 16.12C97.2861 16.12 95.6631 16.4695 94.1411 17.172L94.9791 18.988C96.2301 18.4104 97.5671 18.12 99.0001 18.12V16.12ZM94.1411 17.172C92.6381 17.8656 91.3081 18.8202 90.1561 20.0303L91.6041 21.4097C92.5851 20.3798 93.7081 19.5744 94.9791 18.988L94.1411 17.172ZM90.1471 20.0395C89.0181 21.2557 88.1391 22.6705 87.5091 24.2743L89.3711 25.0057C89.9141 23.6228 90.6621 22.4243 91.6131 21.4004L90.1471 20.0395ZM87.5121 24.2686C86.8751 25.8608 86.5601 27.561 86.5601 29.36H88.5601C88.5601 27.799 88.8321 26.3526 89.3681 25.0114L87.5121 24.2686ZM86.5601 29.36C86.5601 31.1838 86.8741 32.9086 87.5091 34.5257L89.3711 33.7943C88.8331 32.4248 88.5601 30.9496 88.5601 29.36H86.5601ZM87.5121 34.5314C88.1421 36.1083 89.0211 37.5073 90.1471 38.7205L91.6131 37.3595C90.6591 36.3327 89.9111 35.145 89.3681 33.7886L87.5121 34.5314ZM90.1561 38.7297C91.3081 39.9398 92.6381 40.8944 94.1411 41.588L94.9791 39.772C93.7081 39.1856 92.5851 38.3802 91.6041 37.3503L90.1561 38.7297ZM94.1551 41.5945C95.6741 42.2664 97.2931 42.6 99.0001 42.6V40.6C97.5611 40.6 96.2191 40.3203 94.9651 39.7655L94.1551 41.5945ZM99.0001 42.6C100.473 42.6 101.874 42.354 103.193 41.8555L102.487 39.9845C101.406 40.3927 100.247 40.6 99.0001 40.6V42.6ZM103.204 41.8512C104.517 41.3375 105.767 40.6404 106.954 39.7646L105.766 38.1554C104.713 38.9329 103.616 39.5425 102.476 39.9888L103.204 41.8512ZM106.945 39.7707C107.285 39.5258 107.505 39.4969 107.643 39.5132L107.877 37.5268C107.108 37.4364 106.394 37.7009 105.774 38.1493L106.945 39.7707ZM107.705 39.5185C107.931 39.531 108.085 39.6066 108.225 39.7583L109.695 38.4017C109.195 37.8601 108.549 37.5623 107.815 37.5215L107.705 39.5185ZM108.253 39.7871C108.334 39.8686 108.44 40.0365 108.44 40.44H110.44C110.44 39.6701 110.226 38.9314 109.667 38.3729L108.253 39.7871ZM108.44 40.44C108.44 40.5699 108.415 40.7109 108.352 40.8686L110.208 41.6114C110.359 41.2358 110.44 40.8434 110.44 40.44H108.44ZM108.366 40.8339C108.316 40.9463 108.232 41.0736 108.093 41.2129L109.507 42.6271C109.794 42.3397 110.03 42.0137 110.194 41.6461L108.366 40.8339ZM108.177 41.1377C106.819 42.2188 105.369 43.0297 103.826 43.5776L104.494 45.4624C106.257 44.8369 107.901 43.9145 109.423 42.7023L108.177 41.1377ZM103.821 43.5793C102.308 44.1249 100.703 44.4 99.0001 44.4V46.4C100.923 46.4 102.759 46.0885 104.499 45.4607L103.821 43.5793ZM124.094 44.24L123.714 45.165L123.725 45.1694L124.094 44.24ZM119.054 40.92L118.333 41.6136L118.34 41.6204L118.347 41.6271L119.054 40.92ZM115.814 35.84L114.883 36.2049L114.884 36.2092L115.814 35.84ZM124.094 14.56L124.463 15.4894L124.474 15.4849L124.094 14.56ZM136.934 14.56L136.549 15.4831L136.557 15.4863L136.565 15.4894L136.934 14.56ZM141.974 17.88L141.26 18.5805L141.267 18.5871L141.974 17.88ZM145.254 35.84L146.183 36.2092L146.185 36.2049L145.254 35.84ZM141.974 40.92L142.681 41.6271L142.687 41.6205L141.974 40.92ZM136.934 44.24L137.307 45.1676L137.314 45.1649L136.934 44.24ZM135.294 40.72L135.686 41.6401L135.694 41.6365L135.294 40.72ZM139.094 38.12L139.81 38.8184L139.818 38.8097L139.094 38.12ZM141.534 34.2L140.603 33.8343L140.6 33.8416L140.597 33.8489L141.534 34.2ZM141.534 24.52L140.597 24.8711L140.6 24.8784L140.603 24.8857L141.534 24.52ZM139.094 20.64L138.37 21.3297L138.378 21.3383L139.094 20.64ZM135.294 18.04L134.902 18.96L134.908 18.9626L135.294 18.04ZM125.734 18.04L125.348 17.1174L125.342 17.12L125.734 18.04ZM121.974 20.64L121.25 19.9503L121.249 19.9508L121.974 20.64ZM121.974 38.12L121.241 38.8005L121.249 38.8095L121.258 38.8183L121.974 38.12ZM125.734 40.72L125.328 41.6338L125.338 41.6383L125.348 41.6426L125.734 40.72ZM130.534 44.4C128.298 44.4 126.279 44.032 124.463 43.3106L123.725 45.1694C125.802 45.9946 128.076 46.4 130.534 46.4V44.4ZM124.474 43.3151C122.643 42.5626 121.076 41.5278 119.761 40.2129L118.347 41.6271C119.858 43.1389 121.651 44.3175 123.714 45.165L124.474 43.3151ZM119.774 40.2264C118.482 38.8843 117.471 37.3026 116.743 35.4708L114.884 36.2092C115.703 38.2707 116.852 40.0757 118.333 41.6136L119.774 40.2264ZM116.745 35.4751C116.022 33.6299 115.654 31.5952 115.654 29.36H113.654C113.654 31.8182 114.059 34.1035 114.883 36.2049L116.745 35.4751ZM115.654 29.36C115.654 27.1246 116.022 25.1051 116.743 23.2892L114.884 22.5508C114.059 24.6283 113.654 26.9021 113.654 29.36H115.654ZM116.743 23.2892C117.47 21.4589 118.479 19.8933 119.768 18.5803L118.34 17.1795C116.855 18.6932 115.704 20.4878 114.884 22.5508L116.743 23.2892ZM119.767 18.5805C121.079 17.2437 122.641 16.2132 124.463 15.4894L123.725 13.6306C121.653 14.4534 119.855 15.6363 118.34 17.1795L119.767 18.5805ZM124.474 15.4849C126.287 14.7399 128.302 14.36 130.534 14.36V12.36C128.072 12.36 125.794 12.7801 123.714 13.6351L124.474 15.4849ZM130.534 14.36C132.765 14.36 134.766 14.74 136.549 15.4831L137.318 13.6369C135.262 12.78 132.996 12.36 130.534 12.36V14.36ZM136.565 15.4894C138.387 16.2132 139.948 17.2437 141.26 18.5805L142.687 17.1795C141.173 15.6363 139.374 14.4534 137.303 13.6306L136.565 15.4894ZM141.267 18.5871C142.579 19.8995 143.599 21.4629 144.324 23.2892L146.183 22.5508C145.362 20.4837 144.195 18.6872 142.681 17.1729L141.267 18.5871ZM144.324 23.2892C145.046 25.1051 145.414 27.1246 145.414 29.36H147.414C147.414 26.9021 147.008 24.6283 146.183 22.5508L144.324 23.2892ZM145.414 29.36C145.414 31.5952 145.046 33.6299 144.323 35.4751L146.185 36.2049C147.008 34.1035 147.414 31.8182 147.414 29.36H145.414ZM144.324 35.4708C143.598 37.2986 142.577 38.8781 141.26 40.2195L142.687 41.6205C144.198 40.0819 145.363 38.2747 146.183 36.2092L144.324 35.4708ZM141.267 40.2129C139.952 41.5278 138.385 42.5626 136.554 43.3151L137.314 45.1649C139.376 44.3174 141.169 43.1389 142.681 41.6271L141.267 40.2129ZM136.56 43.3124C134.774 44.0319 132.769 44.4 130.534 44.4V46.4C132.991 46.4 135.254 45.9947 137.307 45.1676L136.56 43.3124ZM130.534 42.64C132.387 42.64 134.109 42.3116 135.686 41.6401L134.902 39.8C133.598 40.3551 132.147 40.64 130.534 40.64V42.64ZM135.694 41.6365C137.273 40.9474 138.648 40.0086 139.81 38.8184L138.378 37.4217C137.406 38.4182 136.248 39.2126 134.894 39.8035L135.694 41.6365ZM139.818 38.8097C140.98 37.5892 141.864 36.1664 142.47 34.5511L140.597 33.8489C140.083 35.2203 139.341 36.4108 138.37 37.4303L139.818 38.8097ZM142.465 34.5657C143.1 32.9468 143.414 31.2084 143.414 29.36H141.414C141.414 30.9783 141.14 32.4666 140.603 33.8343L142.465 34.5657ZM143.414 29.36C143.414 27.5116 143.1 25.7732 142.465 24.1543L140.603 24.8857C141.14 26.2534 141.414 27.7417 141.414 29.36H143.414ZM142.47 24.1689C141.864 22.5516 140.977 21.1386 139.81 19.9417L138.378 21.3383C139.344 22.3281 140.084 23.5017 140.597 24.8711L142.47 24.1689ZM139.818 19.9503C138.653 18.7273 137.27 17.7826 135.68 17.1174L134.908 18.9626C136.251 19.524 137.401 20.3127 138.37 21.3297L139.818 19.9503ZM135.686 17.12C134.109 16.4485 132.387 16.12 130.534 16.12V18.12C132.147 18.12 133.598 18.4049 134.902 18.96L135.686 17.12ZM130.534 16.12C128.68 16.12 126.947 16.4485 125.348 17.1174L126.12 18.9626C127.453 18.4048 128.921 18.12 130.534 18.12V16.12ZM125.342 17.12C123.778 17.786 122.411 18.7305 121.25 19.9503L122.698 21.3297C123.669 20.3095 124.809 19.5206 126.126 18.96L125.342 17.12ZM121.249 19.9508C120.115 21.1435 119.234 22.5486 118.603 24.1543L120.465 24.8857C121.007 23.5048 121.753 22.3237 122.698 21.3297L121.249 19.9508ZM118.603 24.1543C117.967 25.7732 117.654 27.5116 117.654 29.36H119.654C119.654 27.7417 119.927 26.2534 120.465 24.8857L118.603 24.1543ZM117.654 29.36C117.654 31.2084 117.967 32.9468 118.603 34.5657L120.465 33.8343C119.927 32.4666 119.654 30.9783 119.654 29.36H117.654ZM118.603 34.5657C119.233 36.1695 120.112 37.5843 121.241 38.8005L122.707 37.4395C121.756 36.4157 121.008 35.2172 120.465 33.8343L118.603 34.5657ZM121.258 38.8183C122.416 40.0054 123.775 40.9439 125.328 41.6338L126.14 39.8062C124.812 39.2161 123.665 38.4213 122.69 37.4217L121.258 38.8183ZM125.348 41.6426C126.947 42.3115 128.68 42.64 130.534 42.64V40.64C128.921 40.64 127.453 40.3552 126.12 39.7974L125.348 41.6426ZM159.21 44.24L158.772 45.1393L158.782 45.144L159.21 44.24ZM154.57 40.28L153.731 40.8255L153.738 40.8347L154.57 40.28ZM153.53 14.36L154.212 15.0911L154.225 15.0793L154.237 15.0671L153.53 14.36ZM156.49 14.36L155.759 15.0423L155.782 15.0675L155.807 15.0911L156.49 14.36ZM158.21 38.36L157.378 38.9147L157.385 38.9262L157.393 38.9375L158.21 38.36ZM161.37 40.96L160.937 41.8615L160.948 41.8667L160.959 41.8716L161.37 40.96ZM170.45 40.96L170.882 41.8618L170.89 41.8581L170.45 40.96ZM173.49 38.36L172.658 37.8053L172.655 37.81L173.49 38.36ZM175.21 14.36L175.892 15.0911L175.905 15.0793L175.917 15.0671L175.21 14.36ZM178.17 14.36L177.439 15.0423L177.45 15.0549L177.463 15.0671L178.17 14.36ZM177.09 40.28L176.251 39.7345L176.245 39.744L177.09 40.28ZM172.61 44.24L173.047 45.1394L173.057 45.1344L172.61 44.24ZM166.01 44.64C163.572 44.64 161.456 44.1961 159.637 43.336L158.782 45.144C160.91 46.1506 163.327 46.64 166.01 46.64V44.64ZM159.647 43.3408C157.819 42.4515 156.415 41.2447 155.402 39.7253L153.738 40.8347C154.965 42.6753 156.653 44.1086 158.772 45.1393L159.647 43.3408ZM155.408 39.7345C154.428 38.2295 153.93 36.502 153.93 34.52H151.93C151.93 36.858 152.523 38.9705 153.731 40.8255L155.408 39.7345ZM153.93 34.52V15.84H151.93V34.52H153.93ZM153.93 15.84C153.93 15.4668 154.04 15.2514 154.212 15.0911L152.847 13.6289C152.219 14.2153 151.93 14.9865 151.93 15.84H153.93ZM154.237 15.0671C154.442 14.8623 154.677 14.76 155.01 14.76V12.76C154.169 12.76 153.418 13.0577 152.823 13.6529L154.237 15.0671ZM155.01 14.76C155.383 14.76 155.598 14.8705 155.759 15.0423L157.221 13.6777C156.634 13.0495 155.863 12.76 155.01 12.76V14.76ZM155.807 15.0911C155.979 15.2514 156.09 15.4668 156.09 15.84H158.09C158.09 14.9865 157.8 14.2153 157.172 13.6289L155.807 15.0911ZM156.09 15.84V34.52H158.09V15.84H156.09ZM156.09 34.52C156.09 36.143 156.514 37.6188 157.378 38.9147L159.042 37.8053C158.412 36.8612 158.09 35.777 158.09 34.52H156.09ZM157.393 38.9375C158.275 40.1838 159.467 41.1558 160.937 41.8615L161.802 40.0585C160.606 39.4842 159.691 38.7229 159.026 37.7825L157.393 38.9375ZM160.959 41.8716C162.467 42.5519 164.157 42.88 166.01 42.88V40.88C164.395 40.88 162.992 40.5948 161.781 40.0484L160.959 41.8716ZM166.01 42.88C167.812 42.88 169.444 42.5506 170.882 41.8618L170.018 40.0582C168.895 40.5961 167.567 40.88 166.01 40.88V42.88ZM170.89 41.8581C172.338 41.1484 173.496 40.1688 174.325 38.91L172.655 37.81C172.043 38.7379 171.174 39.4916 170.01 40.0619L170.89 41.8581ZM174.322 38.9147C175.186 37.6188 175.61 36.143 175.61 34.52H173.61C173.61 35.777 173.287 36.8612 172.658 37.8053L174.322 38.9147ZM175.61 34.52V15.84H173.61V34.52H175.61ZM175.61 15.84C175.61 15.4668 175.72 15.2514 175.892 15.0911L174.527 13.6289C173.899 14.2153 173.61 14.9865 173.61 15.84H175.61ZM175.917 15.0671C176.122 14.8623 176.357 14.76 176.69 14.76V12.76C175.849 12.76 175.098 13.0577 174.503 13.6529L175.917 15.0671ZM176.69 14.76C177.063 14.76 177.278 14.8705 177.439 15.0423L178.901 13.6777C178.314 13.0495 177.543 12.76 176.69 12.76V14.76ZM177.463 15.0671C177.618 15.2225 177.73 15.4455 177.73 15.84H179.73C179.73 15.0078 179.468 14.2442 178.877 13.6529L177.463 15.0671ZM177.73 15.84V34.52H179.73V15.84H177.73ZM177.73 34.52C177.73 36.502 177.23 38.2295 176.251 39.7345L177.928 40.8255C179.135 38.9705 179.73 36.858 179.73 34.52H177.73ZM176.245 39.744C175.284 41.2586 173.933 42.4602 172.162 43.3456L173.057 45.1344C175.126 44.0998 176.762 42.6614 177.934 40.816L176.245 39.744ZM172.172 43.3406C170.409 44.1978 168.363 44.64 166.01 44.64V46.64C168.617 46.64 170.97 46.1488 173.047 45.1394L172.172 43.3406ZM187.319 14.36L188.001 15.0911L188.014 15.0793L188.026 15.0671L187.319 14.36ZM201.319 15.04L200.836 15.9157L200.847 15.9219L201.319 15.04ZM204.919 18.48L204.054 18.9829L204.061 18.9945L204.919 18.48ZM204.919 28.44L204.07 27.9114L204.063 27.9231L204.919 28.44ZM190.879 32.96V31.96H189.879V32.96H190.879ZM190.279 44.4L189.572 43.6929L189.559 43.7051L189.548 43.7177L190.279 44.4ZM204.359 44.76L203.88 45.6379L203.896 45.6464L203.912 45.6544L204.359 44.76ZM203.599 44L204.45 43.4759L204.448 43.4726L203.599 44ZM196.399 32.4L196.123 31.4388L194.852 31.8038L195.549 32.9274L196.399 32.4ZM200.439 31.24L201.288 30.7123L200.889 30.0702L200.163 30.2788L200.439 31.24ZM207.199 44L208.086 44.4614L208.09 44.4543L208.093 44.4472L207.199 44ZM190.879 29.12H189.879V30.12H190.879V29.12ZM199.239 28.44L199.676 29.3395L199.686 29.3345L199.696 29.3293L199.239 28.44ZM201.439 26.48L202.279 27.0221L202.283 27.0161L202.287 27.01L201.439 26.48ZM190.879 17.6V16.6H189.879V17.6H190.879ZM188.799 44C188.466 44 188.231 43.8977 188.026 43.6929L186.612 45.1071C187.207 45.7023 187.958 46 188.799 46V44ZM188.026 43.6929C187.821 43.4881 187.719 43.2524 187.719 42.92H185.719C185.719 43.7609 186.016 44.5119 186.612 45.1071L188.026 43.6929ZM187.719 42.92V15.84H185.719V42.92H187.719ZM187.719 15.84C187.719 15.4668 187.829 15.2514 188.001 15.0911L186.636 13.6289C186.008 14.2153 185.719 14.9865 185.719 15.84H187.719ZM188.026 15.0671C188.231 14.8623 188.466 14.76 188.799 14.76V12.76C187.958 12.76 187.207 13.0577 186.612 13.6529L188.026 15.0671ZM188.799 14.76H195.999V12.76H188.799V14.76ZM195.999 14.76C197.852 14.76 199.456 15.1543 200.836 15.9157L201.802 14.1644C200.089 13.2192 198.145 12.76 195.999 12.76V14.76ZM200.847 15.9219C202.236 16.6642 203.298 17.6821 204.054 18.9829L205.783 17.9771C204.833 16.3445 203.495 15.0691 201.79 14.1581L200.847 15.9219ZM204.061 18.9945C204.836 20.2852 205.239 21.809 205.239 23.6H207.239C207.239 21.4976 206.762 19.6081 205.776 17.9655L204.061 18.9945ZM205.239 23.6C205.239 25.2438 204.842 26.6708 204.07 27.9114L205.768 28.9686C206.755 27.3826 207.239 25.5829 207.239 23.6H205.239ZM204.063 27.9231C203.31 29.1696 202.251 30.1517 200.859 30.8718L201.778 32.6482C203.479 31.7683 204.821 30.537 205.775 28.9569L204.063 27.9231ZM200.859 30.8718C199.474 31.5881 197.863 31.96 195.999 31.96V33.96C198.135 33.96 200.07 33.5319 201.778 32.6482L200.859 30.8718ZM195.999 31.96H190.879V33.96H195.999V31.96ZM189.879 32.96V42.92H191.879V32.96H189.879ZM189.879 42.92C189.879 43.2524 189.776 43.4881 189.572 43.6929L190.986 45.1071C191.581 44.5119 191.879 43.7609 191.879 42.92H189.879ZM189.548 43.7177C189.387 43.8895 189.172 44 188.799 44V46C189.652 46 190.423 45.7105 191.01 45.0823L189.548 43.7177ZM205.399 44C205.174 44 204.981 43.9531 204.806 43.8656L203.912 45.6544C204.376 45.8869 204.877 46 205.399 46V44ZM204.838 43.8821C204.727 43.822 204.592 43.7064 204.45 43.4759L202.747 44.5241C203.032 44.9869 203.403 45.378 203.88 45.6379L204.838 43.8821ZM204.448 43.4726L197.248 31.8726L195.549 32.9274L202.749 44.5274L204.448 43.4726ZM196.675 33.3612L200.715 32.2012L200.163 30.2788L196.123 31.4388L196.675 33.3612ZM199.589 31.7677L206.149 42.3277L207.848 41.2726L201.288 30.7123L199.589 31.7677ZM206.149 42.3277C206.483 42.8663 206.466 43.2287 206.304 43.5528L208.093 44.4472C208.624 43.3846 208.474 42.2807 207.848 41.2726L206.149 42.3277ZM206.312 43.5386C206.22 43.7152 206.115 43.8134 206.003 43.8758C205.884 43.9422 205.696 44 205.399 44V46C205.955 46 206.494 45.8911 206.974 45.6242C207.462 45.3533 207.831 44.9515 208.086 44.4614L206.312 43.5386ZM190.879 30.12H195.999V28.12H190.879V30.12ZM195.999 30.12C197.349 30.12 198.584 29.87 199.676 29.3395L198.802 27.5405C198.027 27.9167 197.101 28.12 195.999 28.12V30.12ZM199.696 29.3293C200.775 28.7747 201.644 28.0059 202.279 27.0221L200.598 25.9379C200.167 26.6074 199.57 27.1453 198.781 27.5507L199.696 29.3293ZM202.287 27.01C202.925 25.9881 203.239 24.8423 203.239 23.6H201.239C201.239 24.491 201.019 25.2653 200.591 25.95L202.287 27.01ZM203.239 23.6C203.239 22.2695 202.935 21.0505 202.301 19.973L200.577 20.987C201.01 21.7228 201.239 22.5839 201.239 23.6H203.239ZM202.301 19.973C201.674 18.9081 200.807 18.0736 199.716 17.4811L198.762 19.2389C199.537 19.6597 200.137 20.2385 200.577 20.987L202.301 19.973ZM199.716 17.4811C198.615 16.8834 197.366 16.6 195.999 16.6V18.6C197.085 18.6 197.996 18.8232 198.762 19.2389L199.716 17.4811ZM195.999 16.6H190.879V18.6H195.999V16.6ZM189.879 17.6V29.12H191.879V17.6H189.879ZM210.472 39.04L211.392 38.6484L211.384 38.6291L211.375 38.6101L210.472 39.04ZM210.472 37.48L209.619 36.9585L209.608 36.9762L209.598 36.9944L210.472 37.48ZM211.912 36.56L212.108 37.5406L212.119 37.5385L212.129 37.5362L211.912 36.56ZM213.312 36.8L212.805 37.6619L212.835 37.6792L212.865 37.6944L213.312 36.8ZM214.392 37.92L213.488 38.3481L213.491 38.3527L214.392 37.92ZM215.952 39.76L215.338 40.5494L215.345 40.5547L215.352 40.56L215.952 39.76ZM225.432 41.04L225.089 40.1008L225.081 40.1037L225.432 41.04ZM228.072 39.32L228.818 39.986L228.824 39.9795L228.83 39.9729L228.072 39.32ZM227.392 32.68L226.677 33.3786L226.685 33.3871L227.392 32.68ZM221.952 30.6L222.057 29.6055L222.049 29.6046L221.952 30.6ZM216.792 14.36L216.441 13.4237L216.436 13.4255L216.792 14.36ZM226.712 14.08L226.359 15.0155L226.366 15.018L226.712 14.08ZM232.272 18.8L231.418 19.3206L231.423 19.3288L231.429 19.3369L232.272 18.8ZM232.712 20.48L231.723 20.3317L231.72 20.3534L231.718 20.3753L232.712 20.48ZM231.952 21.68L232.486 22.5255L232.495 22.5196L231.952 21.68ZM228.992 20.84L228.117 21.3231L228.122 21.3321L228.127 21.341L228.992 20.84ZM225.272 17.64L224.911 18.5726L224.924 18.5777L224.938 18.5824L225.272 17.64ZM222.352 17.16L222.339 18.16H222.352V17.16ZM217.392 18.28L217.881 19.1525L217.887 19.1488L217.894 19.145L217.392 18.28ZM215.992 24.08L215.111 24.5522L215.121 24.5712L215.132 24.5898L215.992 24.08ZM218.272 25.96L217.834 26.8588L217.842 26.8629L218.272 25.96ZM223.072 27.08L222.97 28.0748L222.972 28.075L223.072 27.08ZM230.472 30L229.793 30.7344L229.799 30.7397L229.805 30.7449L230.472 30ZM232.192 40.32L231.324 39.8239L231.319 39.8317L231.315 39.8397L232.192 40.32ZM229.672 43.16L230.255 43.9723L230.259 43.9696L229.672 43.16ZM226.072 44.84L225.807 43.8757L225.803 43.877L226.072 44.84ZM221.912 44.4C220.312 44.4 218.795 44.1503 217.358 43.6546L216.706 45.5454C218.362 46.1164 220.099 46.4 221.912 46.4V44.4ZM217.358 43.6546C215.916 43.1573 214.679 42.4679 213.634 41.5932L212.35 43.1268C213.599 44.1721 215.055 44.976 216.706 45.5454L217.358 43.6546ZM213.634 41.5932C212.596 40.7245 211.858 39.7427 211.392 38.6484L209.552 39.4316C210.153 40.844 211.095 42.0755 212.35 43.1268L213.634 41.5932ZM211.375 38.6101C211.227 38.2982 211.259 38.1232 211.346 37.9656L209.598 36.9944C209.152 37.7968 209.184 38.6618 209.569 39.4699L211.375 38.6101ZM211.325 38.0014C211.444 37.8083 211.653 37.6316 212.108 37.5406L211.716 35.5794C210.838 35.7551 210.088 36.1917 209.619 36.9585L211.325 38.0014ZM212.129 37.5362C212.344 37.4885 212.553 37.5138 212.805 37.6619L213.819 35.9381C213.164 35.5529 212.441 35.4182 211.695 35.5838L212.129 37.5362ZM212.865 37.6944C213.136 37.8297 213.34 38.0338 213.488 38.3481L215.296 37.4919C214.965 36.7928 214.449 36.2503 213.759 35.9056L212.865 37.6944ZM213.491 38.3527C213.891 39.1877 214.524 39.9161 215.338 40.5494L216.566 38.9706C215.94 38.4839 215.533 37.9856 215.294 37.4873L213.491 38.3527ZM215.352 40.56C216.198 41.1946 217.191 41.6938 218.316 42.0687L218.948 40.1713C217.993 39.8529 217.199 39.4454 216.552 38.96L215.352 40.56ZM218.316 42.0687C219.463 42.4509 220.663 42.64 221.912 42.64V40.64C220.868 40.64 219.882 40.4825 218.948 40.1713L218.316 42.0687ZM221.912 42.64C223.297 42.64 224.591 42.4233 225.783 41.9763L225.081 40.1037C224.14 40.4567 223.087 40.64 221.912 40.64V42.64ZM225.776 41.9791C226.998 41.5318 228.025 40.8741 228.818 39.986L227.326 38.654C226.786 39.2593 226.053 39.7481 225.089 40.1008L225.776 41.9791ZM228.83 39.9729C229.668 39 230.072 37.8147 230.072 36.48H228.072C228.072 37.3853 227.809 38.0933 227.315 38.6671L228.83 39.9729ZM230.072 36.48C230.072 34.7684 229.382 33.2557 228.099 31.9729L226.685 33.3871C227.642 34.3443 228.072 35.3649 228.072 36.48H230.072ZM228.108 31.9815C226.777 30.6179 224.687 29.8823 222.057 29.6055L221.848 31.5945C224.284 31.851 225.821 32.5022 226.677 33.3786L228.108 31.9815ZM222.049 29.6046C218.88 29.298 216.497 28.3759 214.804 26.9215L213.501 28.4385C215.594 30.2375 218.411 31.262 221.856 31.5954L222.049 29.6046ZM214.804 26.9215C213.122 25.4761 212.312 23.7354 212.312 21.64H210.312C210.312 24.3446 211.396 26.6306 213.501 28.4385L214.804 26.9215ZM212.312 21.64C212.312 20.0795 212.745 18.8148 213.571 17.7868L212.013 16.5332C210.867 17.9586 210.312 19.6805 210.312 21.64H212.312ZM213.571 17.7868C214.432 16.7171 215.61 15.8804 217.148 15.2945L216.436 13.4255C214.614 14.1196 213.126 15.1496 212.013 16.5332L213.571 17.7868ZM217.143 15.2963C218.723 14.7039 220.495 14.4 222.472 14.4V12.4C220.289 12.4 218.275 12.7361 216.441 13.4237L217.143 15.2963ZM222.472 14.4C224.009 14.4 225.297 14.6145 226.359 15.0155L227.066 13.1445C225.727 12.6388 224.189 12.4 222.472 12.4V14.4ZM226.366 15.018C227.486 15.4321 228.444 15.9979 229.251 16.7098L230.574 15.2102C229.567 14.3221 228.392 13.6346 227.059 13.142L226.366 15.018ZM229.251 16.7098C230.078 17.4397 230.801 18.3078 231.418 19.3206L233.126 18.2794C232.41 17.1055 231.56 16.0803 230.574 15.2102L229.251 16.7098ZM231.429 19.3369C231.711 19.7804 231.758 20.099 231.723 20.3317L233.701 20.6283C233.826 19.7943 233.58 18.9929 233.116 18.2631L231.429 19.3369ZM231.718 20.3753C231.698 20.5613 231.626 20.7 231.409 20.8404L232.495 22.5196C233.185 22.0734 233.62 21.412 233.707 20.5847L231.718 20.3753ZM231.418 20.8345C231.169 20.992 230.93 21.0271 230.615 20.9271L230.009 22.8329C230.868 23.1063 231.722 23.008 232.486 22.5255L231.418 20.8345ZM230.615 20.9271C230.252 20.8116 230.019 20.6184 229.858 20.339L228.127 21.341C228.552 22.0749 229.199 22.5751 230.009 22.8329L230.615 20.9271ZM229.868 20.3569C229.389 19.4898 228.798 18.7421 228.088 18.1254L226.776 19.6346C227.293 20.0846 227.742 20.6435 228.117 21.3231L229.868 20.3569ZM228.088 18.1254C227.373 17.5035 226.542 17.0295 225.607 16.6976L224.938 18.5824C225.656 18.8372 226.264 19.1898 226.776 19.6346L228.088 18.1254ZM225.633 16.7074C224.665 16.3328 223.564 16.16 222.352 16.16V18.16C223.38 18.16 224.226 18.3072 224.911 18.5726L225.633 16.7074ZM222.366 16.1601C220.261 16.1317 218.418 16.5288 216.89 17.415L217.894 19.145C219.033 18.4845 220.496 18.1351 222.339 18.16L222.366 16.1601ZM216.904 17.4075C216.102 17.8563 215.461 18.4538 215.025 19.2117C214.59 19.9681 214.392 20.8294 214.392 21.76H216.392C216.392 21.1172 216.527 20.6119 216.759 20.2083C216.99 19.8062 217.349 19.4504 217.881 19.1525L216.904 17.4075ZM214.392 21.76C214.392 22.7345 214.638 23.6691 215.111 24.5522L216.874 23.6078C216.547 22.9975 216.392 22.3855 216.392 21.76H214.392ZM215.132 24.5898C215.694 25.538 216.64 26.2766 217.834 26.8588L218.711 25.0612C217.717 24.5767 217.144 24.062 216.852 23.5702L215.132 24.5898ZM217.842 26.8629C219.112 27.4677 220.843 27.8566 222.97 28.0748L223.174 26.0852C221.141 25.8767 219.672 25.5189 218.702 25.0571L217.842 26.8629ZM222.972 28.075C226 28.3803 228.238 29.2971 229.793 30.7344L231.151 29.2656C229.186 27.4496 226.491 26.4197 223.173 26.085L222.972 28.075ZM229.805 30.7449C231.357 32.1349 232.152 33.9723 232.152 36.36H234.152C234.152 33.4677 233.161 31.0651 231.139 29.255L229.805 30.7449ZM232.152 36.36C232.152 37.7372 231.863 38.8799 231.324 39.8239L233.06 40.8161C233.801 39.5201 234.152 38.0228 234.152 36.36H232.152ZM231.315 39.8397C230.775 40.8256 230.036 41.6611 229.085 42.3504L230.259 43.9696C231.442 43.1122 232.383 42.0544 233.069 40.8003L231.315 39.8397ZM229.089 42.3477C228.155 43.0185 227.065 43.5305 225.807 43.8757L226.337 45.8043C227.8 45.4028 229.11 44.7948 230.255 43.9723L229.089 42.3477ZM225.803 43.877C224.56 44.2248 223.265 44.4 221.912 44.4V46.4C223.44 46.4 224.917 46.2018 226.342 45.803L225.803 43.877ZM240.131 14.36L240.814 15.0911L240.826 15.0793L240.838 15.0671L240.131 14.36ZM261.171 14.32L260.464 15.0271L260.477 15.0402L260.491 15.0528L261.171 14.32ZM243.691 17.6V16.6H242.691V17.6H243.691ZM243.691 27.32H242.691V28.32H243.691V27.32ZM256.651 27.88L255.944 28.5871L255.957 28.6002L255.971 28.6128L256.651 27.88ZM256.651 30.64L257.332 31.3728L257.345 31.3602L257.358 31.3471L256.651 30.64ZM243.691 31.16V30.16H242.691V31.16H243.691ZM243.691 41.16H242.691V42.16H243.691V41.16ZM261.171 44.48L261.852 45.2128L261.865 45.2002L261.878 45.1871L261.171 44.48ZM241.611 44C241.279 44 241.043 43.8977 240.838 43.6929L239.424 45.1071C240.019 45.7023 240.77 46 241.611 46V44ZM240.838 43.6929C240.634 43.4881 240.531 43.2524 240.531 42.92H238.531C238.531 43.7609 238.829 44.5119 239.424 45.1071L240.838 43.6929ZM240.531 42.92V15.84H238.531V42.92H240.531ZM240.531 15.84C240.531 15.4668 240.642 15.2514 240.814 15.0911L239.449 13.6289C238.821 14.2153 238.531 14.9865 238.531 15.84H240.531ZM240.838 15.0671C241.043 14.8623 241.279 14.76 241.611 14.76V12.76C240.77 12.76 240.019 13.0577 239.424 13.6529L240.838 15.0671ZM241.611 14.76H259.691V12.76H241.611V14.76ZM259.691 14.76C260.086 14.76 260.309 14.8717 260.464 15.0271L261.878 13.6129C261.287 13.0216 260.523 12.76 259.691 12.76V14.76ZM260.491 15.0528C260.629 15.1809 260.731 15.3652 260.731 15.72H262.731C262.731 14.9015 262.46 14.1524 261.852 13.5872L260.491 15.0528ZM260.731 15.72C260.731 16.0326 260.639 16.2097 260.491 16.3472L261.852 17.8128C262.45 17.257 262.731 16.5274 262.731 15.72H260.731ZM260.491 16.3472C260.339 16.4884 260.107 16.6 259.691 16.6V18.6C260.503 18.6 261.257 18.365 261.852 17.8128L260.491 16.3472ZM259.691 16.6H243.691V18.6H259.691V16.6ZM242.691 17.6V27.32H244.691V17.6H242.691ZM243.691 28.32H255.171V26.32H243.691V28.32ZM255.171 28.32C255.566 28.32 255.789 28.4317 255.944 28.5871L257.358 27.1729C256.767 26.5816 256.003 26.32 255.171 26.32V28.32ZM255.971 28.6128C256.119 28.7503 256.211 28.9274 256.211 29.24H258.211C258.211 28.4326 257.93 27.703 257.332 27.1472L255.971 28.6128ZM256.211 29.24C256.211 29.5526 256.118 29.7594 255.944 29.9329L257.358 31.3471C257.931 30.774 258.211 30.0474 258.211 29.24H256.211ZM255.971 29.9072C255.819 30.0484 255.587 30.16 255.171 30.16V32.16C255.983 32.16 256.737 31.925 257.332 31.3728L255.971 29.9072ZM255.171 30.16H243.691V32.16H255.171V30.16ZM242.691 31.16V41.16H244.691V31.16H242.691ZM243.691 42.16H259.691V40.16H243.691V42.16ZM259.691 42.16C260.107 42.16 260.339 42.2716 260.491 42.4128L261.852 40.9472C261.257 40.395 260.503 40.16 259.691 40.16V42.16ZM260.491 42.4128C260.639 42.5503 260.731 42.7274 260.731 43.04H262.731C262.731 42.2326 262.45 41.503 261.852 40.9472L260.491 42.4128ZM260.731 43.04C260.731 43.3937 260.628 43.6088 260.464 43.7729L261.878 45.1871C262.461 44.6046 262.731 43.8596 262.731 43.04H260.731ZM260.491 43.7472C260.339 43.8884 260.107 44 259.691 44V46C260.503 46 261.257 45.765 261.852 45.2128L260.491 43.7472ZM259.691 44H241.611V46H259.691V44ZM83.4801 84.04L84.4003 83.6484L84.392 83.6291L84.383 83.6101L83.4801 84.04ZM83.4801 82.48L82.6268 81.9585L82.616 81.9762L82.6059 81.9944L83.4801 82.48ZM84.9201 81.56L85.1161 82.5406L85.1271 82.5385L85.1371 82.5362L84.9201 81.56ZM86.3201 81.8L85.8131 82.6619L85.8421 82.6792L85.8731 82.6944L86.3201 81.8ZM87.4001 82.92L86.4961 83.3481L86.4981 83.3527L87.4001 82.92ZM88.9601 84.76L88.3461 85.5494L88.3531 85.5547L88.3601 85.56L88.9601 84.76ZM98.4401 86.04L98.0961 85.1008L98.0891 85.1037L98.4401 86.04ZM101.08 84.32L101.826 84.986L101.832 84.9795L101.837 84.9729L101.08 84.32ZM100.4 77.68L99.6841 78.3786L99.6931 78.3871L100.4 77.68ZM94.9601 75.6L95.0651 74.6055L95.0561 74.6046L94.9601 75.6ZM89.8001 59.36L89.4491 58.4237L89.4441 58.4255L89.8001 59.36ZM99.7201 59.08L99.3671 60.0155L99.3731 60.018L99.7201 59.08ZM105.28 63.8L104.426 64.3206L104.431 64.3288L104.436 64.3369L105.28 63.8ZM105.72 65.48L104.731 65.3317L104.728 65.3534L104.725 65.3753L105.72 65.48ZM104.96 66.68L105.494 67.5255L105.503 67.5196L104.96 66.68ZM102 65.84L101.124 66.3231L101.129 66.3321L101.135 66.341L102 65.84ZM98.2801 62.64L97.9191 63.5726L97.9321 63.5777L97.9461 63.5824L98.2801 62.64ZM95.3601 62.16L95.3461 63.16H95.3601V62.16ZM90.4001 63.28L90.8891 64.1525L90.8951 64.1488L90.9021 64.145L90.4001 63.28ZM89.0001 69.08L88.1191 69.5522L88.1291 69.5712L88.1401 69.5898L89.0001 69.08ZM91.2801 70.96L90.8421 71.8588L90.8501 71.8629L91.2801 70.96ZM96.0801 72.08L95.9781 73.0748L95.9801 73.075L96.0801 72.08ZM103.48 75L102.801 75.7344L102.807 75.7397L102.813 75.7449L103.48 75ZM105.2 85.32L104.332 84.8239L104.327 84.8317L104.323 84.8397L105.2 85.32ZM102.68 88.16L103.263 88.9723L103.267 88.9696L102.68 88.16ZM99.0801 89.84L98.8151 88.8757L98.8101 88.877L99.0801 89.84ZM94.9201 89.4C93.3191 89.4 91.8031 89.1503 90.3661 88.6546L89.7141 90.5454C91.3701 91.1164 93.1071 91.4 94.9201 91.4V89.4ZM90.3661 88.6546C88.9241 88.1573 87.6871 87.4679 86.6421 86.5932L85.3581 88.1268C86.6071 89.1721 88.0631 89.976 89.7141 90.5454L90.3661 88.6546ZM86.6421 86.5932C85.6041 85.7245 84.8659 84.7427 84.4003 83.6484L82.5599 84.4316C83.161 85.844 84.1025 87.0755 85.3581 88.1268L86.6421 86.5932ZM84.383 83.6101C84.2345 83.2982 84.2667 83.1232 84.3543 82.9656L82.6059 81.9944C82.1601 82.7968 82.1924 83.6618 82.5772 84.4699L84.383 83.6101ZM84.3334 83.0014C84.4514 82.8083 84.6613 82.6316 85.1161 82.5406L84.724 80.5794C83.8455 80.7551 83.0954 81.1917 82.6268 81.9585L84.3334 83.0014ZM85.1371 82.5362C85.3521 82.4885 85.5611 82.5138 85.8131 82.6619L86.8271 80.9381C86.1721 80.5529 85.4481 80.4182 84.7032 80.5838L85.1371 82.5362ZM85.8731 82.6944C86.1431 82.8297 86.3471 83.0338 86.4961 83.3481L88.3041 82.4919C87.9731 81.7928 87.4571 81.2503 86.7671 80.9056L85.8731 82.6944ZM86.4981 83.3527C86.8991 84.1877 87.5321 84.9161 88.3461 85.5494L89.5741 83.9706C88.9481 83.4839 88.5411 82.9856 88.3021 82.4873L86.4981 83.3527ZM88.3601 85.56C89.2061 86.1946 90.1991 86.6938 91.3241 87.0687L91.9561 85.1713C91.0011 84.8529 90.2071 84.4454 89.5601 83.96L88.3601 85.56ZM91.3241 87.0687C92.4701 87.4509 93.6711 87.64 94.9201 87.64V85.64C93.8761 85.64 92.8901 85.4825 91.9561 85.1713L91.3241 87.0687ZM94.9201 87.64C96.3051 87.64 97.5991 87.4233 98.7911 86.9763L98.0891 85.1037C97.1471 85.4567 96.0951 85.64 94.9201 85.64V87.64ZM98.7841 86.9791C100.006 86.5318 101.033 85.8741 101.826 84.986L100.334 83.654C99.7941 84.2593 99.0611 84.7481 98.0961 85.1008L98.7841 86.9791ZM101.837 84.9729C102.676 84 103.08 82.8147 103.08 81.48H101.08C101.08 82.3853 100.817 83.0933 100.323 83.6671L101.837 84.9729ZM103.08 81.48C103.08 79.7684 102.39 78.2557 101.107 76.9729L99.6931 78.3871C100.65 79.3443 101.08 80.3649 101.08 81.48H103.08ZM101.116 76.9815C99.7841 75.6179 97.6941 74.8823 95.0651 74.6055L94.8551 76.5945C97.2921 76.851 98.8291 77.5022 99.6841 78.3786L101.116 76.9815ZM95.0561 74.6046C91.8881 74.298 89.5041 73.3759 87.8121 71.9215L86.5081 73.4385C88.6021 75.2375 91.4191 76.262 94.8641 76.5953L95.0561 74.6046ZM87.8121 71.9215C86.1291 70.4761 85.3201 68.7354 85.3201 66.64H83.3201C83.3201 69.3446 84.4041 71.6306 86.5081 73.4385L87.8121 71.9215ZM85.3201 66.64C85.3201 65.0795 85.7521 63.8148 86.5791 62.7868L85.0211 61.5332C83.8744 62.9586 83.3201 64.6805 83.3201 66.64H85.3201ZM86.5791 62.7868C87.4401 61.7171 88.6181 60.8804 90.1561 60.2945L89.4441 58.4255C87.6221 59.1196 86.1341 60.1496 85.0211 61.5332L86.5791 62.7868ZM90.1511 60.2963C91.7311 59.7039 93.5031 59.4 95.4801 59.4V57.4C93.2971 57.4 91.2821 57.7361 89.4491 58.4237L90.1511 60.2963ZM95.4801 59.4C97.0171 59.4 98.3051 59.6145 99.3671 60.0155L100.073 58.1445C98.7351 57.6388 97.1961 57.4 95.4801 57.4V59.4ZM99.3731 60.018C100.494 60.4321 101.451 60.9979 102.258 61.7098L103.582 60.2102C102.575 59.3221 101.4 58.6346 100.067 58.142L99.3731 60.018ZM102.258 61.7098C103.086 62.4397 103.809 63.3078 104.426 64.3206L106.134 63.2794C105.418 62.1055 104.568 61.0803 103.582 60.2102L102.258 61.7098ZM104.436 64.3369C104.719 64.7804 104.766 65.099 104.731 65.3317L106.709 65.6283C106.834 64.7943 106.588 63.9929 106.124 63.2631L104.436 64.3369ZM104.725 65.3753C104.706 65.5613 104.634 65.7 104.417 65.8404L105.503 67.5196C106.193 67.0734 106.627 66.412 106.715 65.5847L104.725 65.3753ZM104.426 65.8345C104.177 65.992 103.937 66.0271 103.623 65.9271L103.017 67.8329C103.876 68.1063 104.73 68.008 105.494 67.5255L104.426 65.8345ZM103.623 65.9271C103.26 65.8116 103.027 65.6184 102.865 65.339L101.135 66.341C101.559 67.0749 102.206 67.5751 103.017 67.8329L103.623 65.9271ZM102.876 65.3569C102.397 64.4898 101.805 63.7421 101.096 63.1254L99.7841 64.6346C100.301 65.0846 100.749 65.6435 101.124 66.3231L102.876 65.3569ZM101.096 63.1254C100.381 62.5035 99.5501 62.0295 98.6141 61.6976L97.9461 63.5824C98.6641 63.8372 99.2721 64.1898 99.7841 64.6346L101.096 63.1254ZM98.6411 61.7074C97.6731 61.3328 96.5721 61.16 95.3601 61.16V63.16C96.3881 63.16 97.2331 63.3072 97.9191 63.5726L98.6411 61.7074ZM95.3741 61.1601C93.2691 61.1317 91.4261 61.5288 89.8981 62.415L90.9021 64.145C92.0411 63.4845 93.5041 63.1351 95.3461 63.16L95.3741 61.1601ZM89.9111 62.4075C89.1101 62.8563 88.4691 63.4538 88.0331 64.2117C87.5981 64.9681 87.4001 65.8294 87.4001 66.76H89.4001C89.4001 66.1172 89.5351 65.6119 89.7671 65.2083C89.9981 64.8062 90.3571 64.4504 90.8891 64.1525L89.9111 62.4075ZM87.4001 66.76C87.4001 67.7345 87.6451 68.6691 88.1191 69.5522L89.8811 68.6078C89.5551 67.9975 89.4001 67.3855 89.4001 66.76H87.4001ZM88.1401 69.5898C88.7021 70.538 89.6481 71.2766 90.8421 71.8588L91.7181 70.0612C90.7251 69.5767 90.1521 69.062 89.8601 68.5702L88.1401 69.5898ZM90.8501 71.8629C92.1201 72.4677 93.8511 72.8566 95.9781 73.0748L96.1821 71.0852C94.1491 70.8767 92.6801 70.5189 91.7101 70.0571L90.8501 71.8629ZM95.9801 73.075C99.0081 73.3803 101.246 74.2971 102.801 75.7344L104.159 74.2656C102.194 72.4496 99.4991 71.4197 96.1801 71.085L95.9801 73.075ZM102.813 75.7449C104.365 77.1349 105.16 78.9723 105.16 81.36H107.16C107.16 78.4677 106.168 76.0651 104.147 74.255L102.813 75.7449ZM105.16 81.36C105.16 82.7372 104.871 83.8799 104.332 84.8239L106.068 85.8161C106.809 84.5201 107.16 83.0228 107.16 81.36H105.16ZM104.323 84.8397C103.783 85.8256 103.044 86.6611 102.093 87.3504L103.267 88.9696C104.45 88.1122 105.39 87.0544 106.077 85.8003L104.323 84.8397ZM102.097 87.3477C101.162 88.0185 100.073 88.5305 98.8151 88.8757L99.3451 90.8043C100.807 90.4028 102.118 89.7948 103.263 88.9723L102.097 87.3477ZM98.8101 88.877C97.5681 89.2248 96.2731 89.4 94.9201 89.4V91.4C96.4471 91.4 97.9251 91.2018 99.3501 90.803L98.8101 88.877ZM113.459 87L114.373 87.4061L114.377 87.3963L114.381 87.3863L113.459 87ZM124.699 60.16L123.78 59.7661L123.777 59.7737L124.699 60.16ZM128.619 60.16L127.682 60.5082L127.689 60.5275L127.697 60.5465L128.619 60.16ZM139.899 87.08L140.83 86.7143L140.826 86.7039L140.821 86.6935L139.899 87.08ZM139.739 89.12L138.901 88.5737L138.895 88.5831L139.739 89.12ZM136.859 89.68L136.29 90.5022L136.325 90.5268L136.363 90.5482L136.859 89.68ZM136.099 88.72L137.028 88.3486L137.027 88.3465L136.099 88.72ZM126.179 64.08V63.08H124.698L125.251 64.4535L126.179 64.08ZM127.299 64.08L128.225 64.4586L128.789 63.08H127.299V64.08ZM117.219 88.72L118.135 89.1208L118.14 89.1098L118.145 89.0986L117.219 88.72ZM116.379 89.68L115.883 88.8118L115.869 88.8198L115.855 88.8283L116.379 89.68ZM117.419 83.12L116.512 82.6983L115.851 84.12H117.419V83.12ZM119.019 79.68V78.68H118.381L118.112 79.2583L119.019 79.68ZM134.699 79.68L135.606 79.2583L135.337 78.68H134.699V79.68ZM136.299 83.12V84.12H137.867L137.206 82.6983L136.299 83.12ZM115.299 89C114.902 89 114.647 88.8615 114.427 88.51L112.731 89.57C113.311 90.4985 114.203 91 115.299 91V89ZM114.427 88.51C114.212 88.1662 114.181 87.8385 114.373 87.4061L112.545 86.5939C112.097 87.6015 112.146 88.6338 112.731 89.57L114.427 88.51ZM114.381 87.3863L125.621 60.5463L123.777 59.7737L112.537 86.6137L114.381 87.3863ZM125.618 60.5539C125.765 60.2114 125.927 60.0259 126.07 59.9237C126.206 59.8269 126.386 59.76 126.659 59.76V57.76C126.025 57.76 125.426 57.9264 124.908 58.2963C124.398 58.6607 124.033 59.1752 123.78 59.7661L125.618 60.5539ZM126.659 59.76C126.972 59.76 127.162 59.8337 127.288 59.9237C127.417 60.0158 127.561 60.1836 127.682 60.5082L129.556 59.8118C129.33 59.2031 128.975 58.6709 128.45 58.2963C127.923 57.9196 127.306 57.76 126.659 57.76V59.76ZM127.697 60.5465L138.977 87.4665L140.821 86.6935L129.541 59.7735L127.697 60.5465ZM138.968 87.4457C139.157 87.9248 139.106 88.2603 138.901 88.5737L140.577 89.6663C141.172 88.7531 141.228 87.7286 140.83 86.7143L138.968 87.4457ZM138.895 88.5831C138.729 88.845 138.496 89 138.019 89V91C139.089 91 140.003 90.5684 140.583 89.6569L138.895 88.5831ZM138.019 89C137.806 89 137.589 88.9454 137.355 88.8118L136.363 90.5482C136.876 90.8412 137.432 91 138.019 91V89ZM137.428 88.8578C137.247 88.7321 137.116 88.5705 137.028 88.3486L135.171 89.0914C135.402 89.6695 135.778 90.1479 136.29 90.5022L137.428 88.8578ZM137.027 88.3465L127.107 63.7065L125.251 64.4535L135.171 89.0935L137.027 88.3465ZM126.179 65.08H127.299V63.08H126.179V65.08ZM126.374 63.7014L116.294 88.3414L118.145 89.0986L128.225 64.4586L126.374 63.7014ZM116.303 88.3192C116.195 88.5663 116.054 88.7141 115.883 88.8118L116.875 90.5482C117.451 90.2193 117.87 89.7271 118.135 89.1208L116.303 88.3192ZM115.855 88.8283C115.651 88.9538 115.471 89 115.299 89V91C115.874 91 116.414 90.8329 116.903 90.5317L115.855 88.8283ZM118.326 83.5417L119.926 80.1017L118.112 79.2583L116.512 82.6983L118.326 83.5417ZM119.019 80.68H134.699V78.68H119.019V80.68ZM133.792 80.1017L135.392 83.5417L137.206 82.6983L135.606 79.2583L133.792 80.1017ZM136.299 82.12H117.419V84.12H136.299V82.12ZM154.301 88.68L153.385 89.0807L153.388 89.0873L153.391 89.0938L154.301 88.68ZM142.581 61.88L141.656 62.2607L141.66 62.2708L141.665 62.2807L142.581 61.88ZM146.061 60L146.984 59.6155L146.983 59.6133L146.061 60ZM156.341 84.68V85.68H157.841L157.264 84.2955L156.341 84.68ZM155.901 84.68L154.98 84.2891L154.39 85.68H155.901V84.68ZM166.381 60L165.467 59.5939L165.464 59.6015L165.46 59.6091L166.381 60ZM167.101 59.04L167.615 59.8975L167.627 59.8907L167.638 59.8837L167.101 59.04ZM169.901 59.64L169.007 60.0872L169.019 60.112L169.033 60.1361L169.901 59.64ZM169.901 61.52L168.993 61.1009L168.989 61.1106L168.984 61.1204L169.901 61.52ZM158.061 88.68L158.977 89.0808L158.978 89.0796L158.061 88.68ZM157.301 89.68L157.889 90.4887L157.895 90.4844L157.901 90.48L157.301 89.68ZM156.181 89C155.935 89 155.772 88.94 155.646 88.8516C155.512 88.7577 155.357 88.5858 155.211 88.2662L153.391 89.0938C153.645 89.6542 154.003 90.1423 154.496 90.4884C154.997 90.84 155.573 91 156.181 91V89ZM155.217 88.2793L143.497 61.4793L141.665 62.2807L153.385 89.0807L155.217 88.2793ZM143.506 61.4992C143.187 60.7261 143.244 60.3091 143.355 60.0872L141.567 59.1928C141.091 60.1442 141.228 61.2206 141.656 62.2607L143.506 61.4992ZM143.355 60.0872C143.432 59.9331 143.575 59.76 144.141 59.76V57.76C143.053 57.76 142.076 58.1735 141.567 59.1928L143.355 60.0872ZM144.141 59.76C144.459 59.76 144.653 59.8291 144.778 59.91C144.901 59.9891 145.029 60.1257 145.139 60.3867L146.983 59.6133C146.746 59.0476 146.381 58.5642 145.863 58.23C145.349 57.8975 144.757 57.76 144.141 57.76V59.76ZM145.138 60.3845L155.418 85.0645L157.264 84.2955L146.984 59.6155L145.138 60.3845ZM156.341 83.68H155.901V85.68H156.341V83.68ZM156.821 85.0709L167.301 60.3909L165.46 59.6091L154.98 84.2891L156.821 85.0709ZM167.295 60.4061C167.38 60.2148 167.458 60.0845 167.521 60C167.585 59.9152 167.62 59.8949 167.615 59.8975L166.586 58.1825C166.059 58.499 165.712 59.0423 165.467 59.5939L167.295 60.4061ZM167.638 59.8837C167.721 59.831 167.901 59.76 168.261 59.76V57.76C167.66 57.76 167.068 57.8757 166.564 58.1963L167.638 59.8837ZM168.261 59.76C168.542 59.76 168.706 59.8119 168.798 59.8612C168.879 59.9044 168.947 59.9674 169.007 60.0872L170.795 59.1928C170.562 58.7259 170.21 58.3489 169.744 58.0988C169.289 57.8548 168.78 57.76 168.261 57.76V59.76ZM169.033 60.1361C169.161 60.3613 169.206 60.6396 168.993 61.1009L170.809 61.9391C171.236 61.0137 171.28 60.0387 170.769 59.1439L169.033 60.1361ZM168.984 61.1204L157.144 88.2804L158.978 89.0796L170.818 61.9196L168.984 61.1204ZM157.145 88.2792C157.016 88.5739 156.862 88.7595 156.701 88.88L157.901 90.48C158.38 90.1205 158.733 89.6394 158.977 89.0808L157.145 88.2792ZM156.713 88.8713C156.629 88.9322 156.476 89 156.181 89V91C156.792 91 157.386 90.8545 157.889 90.4887L156.713 88.8713ZM179.553 59.36L180.235 60.0911L180.248 60.0793L180.26 60.0671L179.553 59.36ZM200.593 59.32L199.886 60.0271L199.899 60.0402L199.913 60.0528L200.593 59.32ZM183.113 62.6V61.6H182.113V62.6H183.113ZM183.113 72.32H182.113V73.32H183.113V72.32ZM196.073 72.88L195.366 73.5871L195.379 73.6002L195.393 73.6128L196.073 72.88ZM196.073 75.64L196.754 76.3728L196.767 76.3602L196.78 76.3471L196.073 75.64ZM183.113 76.16V75.16H182.113V76.16H183.113ZM183.113 86.16H182.113V87.16H183.113V86.16ZM200.593 89.48L201.274 90.2128L201.287 90.2002L201.3 90.1871L200.593 89.48ZM181.033 89C180.701 89 180.465 88.8977 180.26 88.6929L178.846 90.1071C179.441 90.7023 180.192 91 181.033 91V89ZM180.26 88.6929C180.055 88.4881 179.953 88.2524 179.953 87.92H177.953C177.953 88.7609 178.251 89.5119 178.846 90.1071L180.26 88.6929ZM179.953 87.92V60.84H177.953V87.92H179.953ZM179.953 60.84C179.953 60.4668 180.064 60.2514 180.235 60.0911L178.871 58.6289C178.243 59.2153 177.953 59.9865 177.953 60.84H179.953ZM180.26 60.0671C180.465 59.8623 180.701 59.76 181.033 59.76V57.76C180.192 57.76 179.441 58.0577 178.846 58.6529L180.26 60.0671ZM181.033 59.76H199.113V57.76H181.033V59.76ZM199.113 59.76C199.508 59.76 199.731 59.8717 199.886 60.0271L201.3 58.6129C200.709 58.0216 199.945 57.76 199.113 57.76V59.76ZM199.913 60.0528C200.051 60.1809 200.153 60.3652 200.153 60.72H202.153C202.153 59.9015 201.882 59.1524 201.274 58.5872L199.913 60.0528ZM200.153 60.72C200.153 61.0326 200.061 61.2097 199.913 61.3472L201.274 62.8128C201.872 62.257 202.153 61.5274 202.153 60.72H200.153ZM199.913 61.3472C199.761 61.4884 199.528 61.6 199.113 61.6V63.6C199.924 63.6 200.679 63.365 201.274 62.8128L199.913 61.3472ZM199.113 61.6H183.113V63.6H199.113V61.6ZM182.113 62.6V72.32H184.113V62.6H182.113ZM183.113 73.32H194.593V71.32H183.113V73.32ZM194.593 73.32C194.988 73.32 195.211 73.4317 195.366 73.5871L196.78 72.1729C196.189 71.5816 195.425 71.32 194.593 71.32V73.32ZM195.393 73.6128C195.541 73.7503 195.633 73.9274 195.633 74.24H197.633C197.633 73.4326 197.352 72.703 196.754 72.1472L195.393 73.6128ZM195.633 74.24C195.633 74.5526 195.54 74.7594 195.366 74.9329L196.78 76.3471C197.353 75.774 197.633 75.0474 197.633 74.24H195.633ZM195.393 74.9072C195.241 75.0484 195.008 75.16 194.593 75.16V77.16C195.404 77.16 196.159 76.925 196.754 76.3728L195.393 74.9072ZM194.593 75.16H183.113V77.16H194.593V75.16ZM182.113 76.16V86.16H184.113V76.16H182.113ZM183.113 87.16H199.113V85.16H183.113V87.16ZM199.113 87.16C199.528 87.16 199.761 87.2716 199.913 87.4128L201.274 85.9472C200.679 85.395 199.924 85.16 199.113 85.16V87.16ZM199.913 87.4128C200.061 87.5503 200.153 87.7274 200.153 88.04H202.153C202.153 87.2326 201.872 86.503 201.274 85.9472L199.913 87.4128ZM200.153 88.04C200.153 88.3937 200.05 88.6088 199.886 88.7729L201.3 90.1871C201.883 89.6046 202.153 88.8596 202.153 88.04H200.153ZM199.913 88.7472C199.761 88.8884 199.528 89 199.113 89V91C199.924 91 200.679 90.765 201.274 90.2128L199.913 88.7472ZM199.113 89H181.033V91H199.113V89ZM211.561 59.36L212.243 60.0911L212.256 60.0793L212.268 60.0671L211.561 59.36ZM225.561 60.04L225.078 60.9157L225.09 60.9219L225.561 60.04ZM229.161 63.48L228.297 63.9829L228.303 63.9945L229.161 63.48ZM229.161 73.44L228.312 72.9114L228.305 72.9231L229.161 73.44ZM215.121 77.96V76.96H214.121V77.96H215.121ZM214.521 89.4L213.814 88.6929L213.802 88.7051L213.79 88.7177L214.521 89.4ZM228.601 89.76L228.122 90.6379L228.138 90.6464L228.154 90.6544L228.601 89.76ZM227.841 89L228.693 88.4759L228.691 88.4726L227.841 89ZM220.641 77.4L220.365 76.4388L219.094 76.8038L219.791 77.9274L220.641 77.4ZM224.681 76.24L225.53 75.7123L225.132 75.0702L224.405 75.2788L224.681 76.24ZM231.241 86.8L232.091 86.2726L232.09 86.2723L231.241 86.8ZM231.441 89L232.328 89.4613L232.332 89.4543L232.335 89.4472L231.441 89ZM215.121 74.12H214.121V75.12H215.121V74.12ZM223.481 73.44L223.918 74.3395L223.928 74.3345L223.938 74.3293L223.481 73.44ZM225.681 71.48L226.521 72.0221L226.525 72.0161L226.529 72.01L225.681 71.48ZM215.121 62.6V61.6H214.121V62.6H215.121ZM213.041 89C212.709 89 212.473 88.8977 212.268 88.6929L210.854 90.1071C211.449 90.7023 212.2 91 213.041 91V89ZM212.268 88.6929C212.063 88.4881 211.961 88.2524 211.961 87.92H209.961C209.961 88.7609 210.259 89.5119 210.854 90.1071L212.268 88.6929ZM211.961 87.92V60.84H209.961V87.92H211.961ZM211.961 60.84C211.961 60.4668 212.071 60.2514 212.243 60.0911L210.879 58.6289C210.25 59.2153 209.961 59.9865 209.961 60.84H211.961ZM212.268 60.0671C212.473 59.8623 212.709 59.76 213.041 59.76V57.76C212.2 57.76 211.449 58.0577 210.854 58.6529L212.268 60.0671ZM213.041 59.76H220.241V57.76H213.041V59.76ZM220.241 59.76C222.095 59.76 223.698 60.1543 225.078 60.9157L226.044 59.1644C224.331 58.2192 222.387 57.76 220.241 57.76V59.76ZM225.09 60.9219C226.478 61.6642 227.54 62.6821 228.297 63.9829L230.025 62.9771C229.075 61.3445 227.737 60.0691 226.032 59.1581L225.09 60.9219ZM228.303 63.9945C229.078 65.2852 229.481 66.809 229.481 68.6H231.481C231.481 66.4976 231.004 64.6081 230.018 62.9655L228.303 63.9945ZM229.481 68.6C229.481 70.2438 229.085 71.6708 228.312 72.9114L230.01 73.9686C230.997 72.3826 231.481 70.5829 231.481 68.6H229.481ZM228.305 72.9231C227.552 74.1696 226.494 75.1517 225.102 75.8718L226.02 77.6482C227.722 76.7683 229.063 75.537 230.017 73.9569L228.305 72.9231ZM225.102 75.8718C223.717 76.5881 222.105 76.96 220.241 76.96V78.96C222.377 78.96 224.312 78.5319 226.02 77.6482L225.102 75.8718ZM220.241 76.96H215.121V78.96H220.241V76.96ZM214.121 77.96V87.92H216.121V77.96H214.121ZM214.121 87.92C214.121 88.2524 214.019 88.4881 213.814 88.6929L215.228 90.1071C215.823 89.5119 216.121 88.7609 216.121 87.92H214.121ZM213.79 88.7177C213.63 88.8895 213.414 89 213.041 89V91C213.894 91 214.666 90.7105 215.252 90.0823L213.79 88.7177ZM229.641 89C229.416 89 229.223 88.9531 229.048 88.8656L228.154 90.6544C228.619 90.8869 229.119 91 229.641 91V89ZM229.08 88.8821C228.97 88.822 228.834 88.7064 228.693 88.4759L226.989 89.5241C227.274 89.9869 227.646 90.378 228.122 90.6379L229.08 88.8821ZM228.691 88.4726L221.491 76.8726L219.791 77.9274L226.991 89.5274L228.691 88.4726ZM220.917 78.3612L224.957 77.2012L224.405 75.2788L220.365 76.4388L220.917 78.3612ZM223.831 76.7677L230.391 87.3277L232.09 86.2723L225.53 75.7123L223.831 76.7677ZM230.391 87.3277C230.726 87.8663 230.709 88.2287 230.547 88.5528L232.335 89.4472C232.867 88.3846 232.716 87.2807 232.091 86.2726L230.391 87.3277ZM230.554 88.5387C230.462 88.7152 230.358 88.8134 230.245 88.8758C230.126 88.9422 229.938 89 229.641 89V91C230.197 91 230.736 90.8911 231.217 90.6242C231.704 90.3533 232.073 89.9515 232.328 89.4613L230.554 88.5387ZM215.121 75.12H220.241V73.12H215.121V75.12ZM220.241 75.12C221.592 75.12 222.826 74.87 223.918 74.3395L223.044 72.5405C222.27 72.9167 221.344 73.12 220.241 73.12V75.12ZM223.938 74.3293C225.017 73.7747 225.887 73.0059 226.521 72.0221L224.841 70.9379C224.409 71.6074 223.812 72.1453 223.024 72.5507L223.938 74.3293ZM226.529 72.01C227.168 70.9881 227.481 69.8423 227.481 68.6H225.481C225.481 69.491 225.261 70.2653 224.833 70.95L226.529 72.01ZM227.481 68.6C227.481 67.2695 227.177 66.0505 226.543 64.973L224.819 65.987C225.252 66.7228 225.481 67.5839 225.481 68.6H227.481ZM226.543 64.973C225.916 63.9081 225.049 63.0736 223.958 62.4811L223.004 64.2389C223.779 64.6597 224.379 65.2385 224.819 65.987L226.543 64.973ZM223.958 62.4811C222.857 61.8834 221.608 61.6 220.241 61.6V63.6C221.327 63.6 222.238 63.8232 223.004 64.2389L223.958 62.4811ZM220.241 61.6H215.121V63.6H220.241V61.6ZM214.121 62.6V74.12H216.121V62.6H214.121ZM238.714 84.04L239.635 83.6484L239.626 83.6291L239.617 83.6101L238.714 84.04ZM238.714 82.48L237.861 81.9585L237.85 81.9762L237.84 81.9944L238.714 82.48ZM240.154 81.56L240.35 82.5406L240.361 82.5385L240.371 82.5362L240.154 81.56ZM241.554 81.8L241.047 82.6619L241.077 82.6792L241.107 82.6944L241.554 81.8ZM242.634 82.92L241.731 83.3481L241.733 83.3527L242.634 82.92ZM244.194 84.76L243.58 85.5494L243.587 85.5547L243.594 85.56L244.194 84.76ZM253.674 86.04L253.331 85.1008L253.323 85.1037L253.674 86.04ZM256.314 84.32L257.06 84.986L257.066 84.9795L257.072 84.9729L256.314 84.32ZM255.634 77.68L254.919 78.3786L254.927 78.3871L255.634 77.68ZM250.194 75.6L250.299 74.6055L250.291 74.6046L250.194 75.6ZM245.034 59.36L244.683 58.4237L244.678 58.4255L245.034 59.36ZM254.954 59.08L254.601 60.0155L254.608 60.018L254.954 59.08ZM260.514 63.8L259.661 64.3206L259.666 64.3288L259.671 64.3369L260.514 63.8ZM260.954 65.48L259.965 65.3317L259.962 65.3534L259.96 65.3753L260.954 65.48ZM260.194 66.68L260.728 67.5255L260.738 67.5196L260.194 66.68ZM257.234 65.84L256.359 66.3231L256.364 66.3321L256.369 66.341L257.234 65.84ZM253.514 62.64L253.153 63.5726L253.167 63.5777L253.18 63.5824L253.514 62.64ZM250.594 62.16L250.581 63.16H250.594V62.16ZM245.634 63.28L246.123 64.1525L246.13 64.1488L246.136 64.145L245.634 63.28ZM244.234 69.08L243.353 69.5522L243.363 69.5712L243.374 69.5898L244.234 69.08ZM246.514 70.96L246.076 71.8588L246.084 71.8629L246.514 70.96ZM251.314 72.08L251.212 73.0748L251.214 73.075L251.314 72.08ZM258.714 75L258.036 75.7344L258.041 75.7397L258.047 75.7449L258.714 75ZM260.434 85.32L259.566 84.8239L259.562 84.8317L259.557 84.8397L260.434 85.32ZM257.914 88.16L258.498 88.9723L258.501 88.9696L257.914 88.16ZM254.314 89.84L254.05 88.8757L254.045 88.877L254.314 89.84ZM250.154 89.4C248.554 89.4 247.038 89.1503 245.6 88.6546L244.948 90.5454C246.604 91.1164 248.342 91.4 250.154 91.4V89.4ZM245.6 88.6546C244.158 88.1573 242.921 87.4679 241.876 86.5932L240.592 88.1268C241.841 89.1721 243.297 89.976 244.948 90.5454L245.6 88.6546ZM241.876 86.5932C240.839 85.7245 240.1 84.7427 239.635 83.6484L237.794 84.4316C238.395 85.844 239.337 87.0755 240.592 88.1268L241.876 86.5932ZM239.617 83.6101C239.469 83.2982 239.501 83.1232 239.589 82.9656L237.84 81.9944C237.394 82.7968 237.427 83.6618 237.812 84.4699L239.617 83.6101ZM239.568 83.0014C239.686 82.8083 239.896 82.6316 240.35 82.5406L239.958 80.5794C239.08 80.7551 238.33 81.1917 237.861 81.9585L239.568 83.0014ZM240.371 82.5362C240.586 82.4885 240.796 82.5138 241.047 82.6619L242.061 80.9381C241.407 80.5529 240.683 80.4182 239.937 80.5838L240.371 82.5362ZM241.107 82.6944C241.378 82.8297 241.582 83.0338 241.731 83.3481L243.538 82.4919C243.207 81.7928 242.691 81.2503 242.002 80.9056L241.107 82.6944ZM241.733 83.3527C242.134 84.1877 242.766 84.9161 243.58 85.5494L244.808 83.9706C244.183 83.4839 243.775 82.9856 243.536 82.4873L241.733 83.3527ZM243.594 85.56C244.441 86.1946 245.434 86.6938 246.558 87.0687L247.191 85.1713C246.235 84.8529 245.442 84.4454 244.794 83.96L243.594 85.56ZM246.558 87.0687C247.705 87.4509 248.905 87.64 250.154 87.64V85.64C249.11 85.64 248.124 85.4825 247.191 85.1713L246.558 87.0687ZM250.154 87.64C251.54 87.64 252.834 87.4233 254.025 86.9763L253.323 85.1037C252.382 85.4567 251.329 85.64 250.154 85.64V87.64ZM254.018 86.9791C255.241 86.5318 256.267 85.8741 257.06 84.986L255.568 83.654C255.028 84.2593 254.295 84.7481 253.331 85.1008L254.018 86.9791ZM257.072 84.9729C257.911 84 258.314 82.8147 258.314 81.48H256.314C256.314 82.3853 256.052 83.0933 255.557 83.6671L257.072 84.9729ZM258.314 81.48C258.314 79.7684 257.624 78.2557 256.341 76.9729L254.927 78.3871C255.884 79.3443 256.314 80.3649 256.314 81.48H258.314ZM256.35 76.9815C255.019 75.6179 252.929 74.8823 250.299 74.6055L250.09 76.5945C252.527 76.851 254.063 77.5022 254.919 78.3786L256.35 76.9815ZM250.291 74.6046C247.122 74.298 244.739 73.3759 243.046 71.9215L241.743 73.4385C243.837 75.2375 246.653 76.262 250.098 76.5953L250.291 74.6046ZM243.046 71.9215C241.364 70.4761 240.554 68.7354 240.554 66.64H238.554C238.554 69.3446 239.638 71.6306 241.743 73.4385L243.046 71.9215ZM240.554 66.64C240.554 65.0795 240.987 63.8148 241.814 62.7868L240.255 61.5332C239.109 62.9586 238.554 64.6805 238.554 66.64H240.554ZM241.814 62.7868C242.674 61.7171 243.852 60.8804 245.39 60.2945L244.678 58.4255C242.856 59.1196 241.368 60.1496 240.255 61.5332L241.814 62.7868ZM245.385 60.2963C246.965 59.7039 248.738 59.4 250.714 59.4V57.4C248.531 57.4 246.517 57.7361 244.683 58.4237L245.385 60.2963ZM250.714 59.4C252.251 59.4 253.54 59.6145 254.601 60.0155L255.308 58.1445C253.969 57.6388 252.431 57.4 250.714 57.4V59.4ZM254.608 60.018C255.728 60.4321 256.686 60.9979 257.493 61.7098L258.816 60.2102C257.81 59.3221 256.634 58.6346 255.301 58.142L254.608 60.018ZM257.493 61.7098C258.32 62.4397 259.043 63.3078 259.661 64.3206L261.368 63.2794C260.652 62.1055 259.802 61.0803 258.816 60.2102L257.493 61.7098ZM259.671 64.3369C259.953 64.7804 260 65.099 259.965 65.3317L261.943 65.6283C262.068 64.7943 261.822 63.9929 261.358 63.2631L259.671 64.3369ZM259.96 65.3753C259.94 65.5613 259.868 65.7 259.651 65.8404L260.738 67.5196C261.427 67.0734 261.862 66.412 261.949 65.5847L259.96 65.3753ZM259.66 65.8345C259.411 65.992 259.172 66.0271 258.858 65.9271L258.251 67.8329C259.11 68.1063 259.964 68.008 260.728 67.5255L259.66 65.8345ZM258.858 65.9271C258.495 65.8116 258.262 65.6184 258.1 65.339L256.369 66.341C256.794 67.0749 257.441 67.5751 258.251 67.8329L258.858 65.9271ZM258.11 65.3569C257.632 64.4898 257.04 63.7421 256.331 63.1254L255.018 64.6346C255.536 65.0846 255.984 65.6435 256.359 66.3231L258.11 65.3569ZM256.331 63.1254C255.615 62.5035 254.784 62.0295 253.849 61.6976L253.18 63.5824C253.898 63.8372 254.507 64.1898 255.018 64.6346L256.331 63.1254ZM253.875 61.7074C252.908 61.3328 251.807 61.16 250.594 61.16V63.16C251.622 63.16 252.468 63.3072 253.153 63.5726L253.875 61.7074ZM250.608 61.1601C248.504 61.1317 246.661 61.5288 245.133 62.415L246.136 64.145C247.275 63.4845 248.738 63.1351 250.581 63.16L250.608 61.1601ZM245.146 62.4075C244.344 62.8563 243.703 63.4538 243.267 64.2117C242.833 64.9681 242.634 65.8294 242.634 66.76H244.634C244.634 66.1172 244.769 65.6119 245.001 65.2083C245.232 64.8062 245.591 64.4504 246.123 64.1525L245.146 62.4075ZM242.634 66.76C242.634 67.7345 242.88 68.6691 243.353 69.5522L245.116 68.6078C244.789 67.9975 244.634 67.3855 244.634 66.76H242.634ZM243.374 69.5898C243.936 70.538 244.883 71.2766 246.076 71.8588L246.953 70.0612C245.96 69.5767 245.386 69.062 245.095 68.5702L243.374 69.5898ZM246.084 71.8629C247.355 72.4677 249.085 72.8566 251.212 73.0748L251.416 71.0852C249.383 70.8767 247.914 70.5189 246.944 70.0571L246.084 71.8629ZM251.214 73.075C254.242 73.3803 256.481 74.2971 258.036 75.7344L259.393 74.2656C257.428 72.4496 254.734 71.4199 251.416 71.0852L251.214 73.075ZM258.047 75.7449C259.599 77.1349 260.394 78.9723 260.394 81.36H262.394C262.394 78.4677 261.403 76.0651 259.382 74.255L258.047 75.7449ZM260.394 81.36C260.394 82.7372 260.106 83.8799 259.566 84.8239L261.303 85.8161C262.043 84.5201 262.394 83.0228 262.394 81.36H260.394ZM259.557 84.8397C259.017 85.8256 258.278 86.6611 257.327 87.3504L258.501 88.9696C259.684 88.1122 260.625 87.0544 261.311 85.8003L259.557 84.8397ZM257.331 87.3477C256.397 88.0185 255.307 88.5305 254.05 88.8757L254.579 90.8043C256.042 90.4028 257.352 89.7948 258.498 88.9723L257.331 87.3477ZM254.045 88.877C252.803 89.2248 251.507 89.4 250.154 89.4V91.4C251.682 91.4 253.159 91.2018 254.584 90.803L254.045 88.877Z" fill="#FCFCFC"/>
<path d="M18.5038 35.8647C20.1444 35.8647 21.7179 35.2129 22.8781 34.0528C24.0382 32.8926 24.69 31.3191 24.69 29.6784C24.69 28.0377 24.0382 26.4642 22.8781 25.3041C21.7179 24.144 20.1444 23.4922 18.5038 23.4922C16.8631 23.4922 15.2896 24.144 14.1294 25.3041C12.9693 26.4642 12.3175 28.0377 12.3175 29.6784C12.3175 31.3191 12.9693 32.8926 14.1294 34.0528C15.2896 35.2129 16.8631 35.8647 18.5038 35.8647ZM57.2138 29.6784C57.2138 31.3191 56.562 32.8926 55.4018 34.0528C54.2417 35.2129 52.6682 35.8647 51.0275 35.8647C49.3868 35.8647 47.8133 35.2129 46.6532 34.0528C45.493 32.8926 44.8413 31.3191 44.8413 29.6784C44.8413 28.0377 45.493 26.4642 46.6532 25.3041C47.8133 24.144 49.3868 23.4922 51.0275 23.4922C52.6682 23.4922 54.2417 24.144 55.4018 25.3041C56.562 26.4642 57.2138 28.0377 57.2138 29.6784Z" fill="#FCFCFC"/>
<path d="M67.6263 6.125C67.6263 9.73875 66.2788 12.985 64.0738 15.4963C66.83 18.6812 68.5144 22.8156 68.5144 27.3175C68.5144 32.1042 67.4793 35.8159 65.6203 38.6886C67.3445 42.7617 68.3 47.2391 68.3 51.94C68.3 64.4564 61.5349 75.3926 51.4654 81.291C52.9661 83.6981 53.9706 86.4482 54.335 89.3944C54.6198 91.6943 52.7149 93.4062 50.66 93.4062H18.4119C16.3569 93.4062 14.4521 91.6943 14.7369 89.3944C15.0921 86.5279 16.0538 83.8512 17.4931 81.4931C12.2736 78.5243 7.934 74.2255 4.9161 69.0342C1.8982 63.843 0.309803 57.9447 0.312503 51.94C0.312503 47.0706 1.3354 42.4401 3.1821 38.2506C1.4916 35.4423 0.557503 31.8653 0.557503 27.3175C0.557503 22.8156 2.2419 18.6812 4.9981 15.4963C2.7117 12.9097 1.4484 9.57725 1.4456 6.125H18.7181C22.0563 6.125 25.1188 7.28875 27.5381 9.21812H41.5031C43.9225 7.28875 46.985 6.125 50.3231 6.125H67.6263ZM20.2279 82.8896C18.9417 84.9354 18.0842 87.269 17.7779 89.7711C17.7681 89.8376 17.774 89.9056 17.7953 89.9694C17.8166 90.0333 17.8526 90.0912 17.9004 90.1386C17.9675 90.2054 18.0474 90.258 18.1353 90.2932C18.2231 90.3285 18.3172 90.3457 18.4119 90.3438H50.66C50.7542 90.3453 50.8477 90.3279 50.935 90.2926C51.0223 90.2574 51.1017 90.205 51.1684 90.1386C51.2173 90.0918 51.2545 90.0341 51.2768 89.9703C51.2992 89.9064 51.3061 89.8381 51.297 89.7711C50.9872 87.2602 50.1152 84.8516 48.7459 82.7243C46.2959 83.8757 43.6836 84.7424 40.958 85.2845C38.831 86.1294 36.5643 86.5678 34.2756 86.5769C31.9451 86.5769 29.6819 86.1083 27.5289 85.26C24.9809 84.7424 22.5371 83.9431 20.2279 82.8896ZM33.3875 48.2711C23.7866 48.2711 15.1228 47.4688 9.1049 43.9224C8.2692 46.3778 7.844 48.9542 7.8463 51.548C7.8463 65.2986 19.6675 82.6875 34.2756 82.6875C48.8838 82.6875 60.705 65.2986 60.705 51.548C60.705 48.9816 60.2946 46.5041 59.5321 44.1735C53.5388 47.5055 45.0556 48.2711 35.6844 48.2711H33.3875ZM18.5038 39.7206C21.1679 39.7206 23.7228 38.6623 25.6066 36.7785C27.4904 34.8947 28.5488 32.3397 28.5488 29.6756C28.5488 27.0115 27.4904 24.4565 25.6066 22.5727C23.7228 20.6889 21.1679 19.6306 18.5038 19.6306C15.8397 19.6306 13.2847 20.6889 11.4009 22.5727C9.5171 24.4565 8.4588 27.0115 8.4588 29.6756C8.4588 32.3397 9.5171 34.8947 11.4009 36.7785C13.2847 38.6623 15.8397 39.7206 18.5038 39.7206ZM51.0275 39.7206C53.6916 39.7206 56.2466 38.6623 58.1304 36.7785C60.0142 34.8947 61.0725 32.3397 61.0725 29.6756C61.0725 27.0115 60.0142 24.4565 58.1304 22.5727C56.2466 20.6889 53.6916 19.6306 51.0275 19.6306C48.3634 19.6306 45.8084 20.6889 43.9246 22.5727C42.0408 24.4565 40.9825 27.0115 40.9825 29.6756C40.9825 32.3397 42.0408 34.8947 43.9246 36.7785C45.8084 38.6623 48.3634 39.7206 51.0275 39.7206ZM30.0188 38.4038H39.5431C39.5431 35.77 37.43 33.6569 34.7963 33.6262C32.1625 33.6262 30.0188 35.77 30.0188 38.4038Z" fill="#FCFCFC"/>
</g>
<defs>
<clipPath id="clip0_1011_41402">
<rect width="263" height="98" fill="white" transform="translate(0.5)"/>
</clipPath>
</defs>
</svg>
