<svg width="48" height="49" viewBox="0 0 48 49" fill="none" xmlns="http://www.w3.org/2000/svg">
<path d="M28.2939 27.0786H27.3905L27.0703 26.7699C28.2297 25.4251 28.8669 23.7083 28.8656 21.9328C28.8656 20.4627 28.4297 19.0257 27.613 17.8034C26.7963 16.581 25.6354 15.6284 24.2772 15.0658C22.9191 14.5032 21.4246 14.356 19.9827 14.6428C18.5409 14.9296 17.2165 15.6375 16.177 16.677C15.1375 17.7165 14.4296 19.0409 14.1428 20.4827C13.856 21.9246 14.0032 23.4191 14.5658 24.7772C15.1284 26.1354 16.081 27.2963 17.3034 28.113C18.5257 28.9297 19.9627 29.3656 21.4328 29.3656C23.2739 29.3656 24.9663 28.691 26.2699 27.5703L26.5786 27.8905V28.7939L32.2962 34.5L34 32.7962L28.2939 27.0786ZM21.4328 27.0786C18.5855 27.0786 16.287 24.7802 16.287 21.9328C16.287 19.0855 18.5855 16.787 21.4328 16.787C24.2802 16.787 26.5786 19.0855 26.5786 21.9328C26.5786 24.7802 24.2802 27.0786 21.4328 27.0786Z" fill="#390A75"/>
</svg>
