<svg width="48" height="48" viewBox="0 0 48 48" fill="none" xmlns="http://www.w3.org/2000/svg">
<path d="M28.2939 26.5786H27.3905L27.0703 26.2699C28.2297 24.9251 28.8669 23.2083 28.8656 21.4328C28.8656 19.9627 28.4297 18.5257 27.613 17.3034C26.7963 16.081 25.6354 15.1284 24.2772 14.5658C22.9191 14.0032 21.4246 13.856 19.9827 14.1428C18.5409 14.4296 17.2165 15.1375 16.177 16.177C15.1375 17.2165 14.4296 18.5409 14.1428 19.9827C13.856 21.4246 14.0032 22.9191 14.5658 24.2772C15.1284 25.6354 16.081 26.7963 17.3034 27.613C18.5257 28.4297 19.9627 28.8656 21.4328 28.8656C23.2739 28.8656 24.9663 28.191 26.2699 27.0703L26.5786 27.3905V28.2939L32.2962 34L34 32.2962L28.2939 26.5786ZM21.4328 26.5786C18.5855 26.5786 16.287 24.2802 16.287 21.4328C16.287 18.5855 18.5855 16.287 21.4328 16.287C24.2802 16.287 26.5786 18.5855 26.5786 21.4328C26.5786 24.2802 24.2802 26.5786 21.4328 26.5786Z" fill="#390A75"/>
</svg>
