<svg width="48" height="48" viewBox="0 0 48 48" fill="none" xmlns="http://www.w3.org/2000/svg">
<path d="M24 12C22.4241 12 20.8637 12.3104 19.4078 12.9134C17.9519 13.5165 16.629 14.4004 15.5147 15.5147C13.2643 17.7652 12 20.8174 12 24C12 27.1826 13.2643 30.2348 15.5147 32.4853C16.629 33.5996 17.9519 34.4835 19.4078 35.0866C20.8637 35.6896 22.4241 36 24 36C27.1826 36 30.2348 34.7357 32.4853 32.4853C34.7357 30.2348 36 27.1826 36 24C36 22.4241 35.6896 20.8637 35.0866 19.4078C34.4835 17.9519 33.5996 16.629 32.4853 15.5147C31.371 14.4004 30.0481 13.5165 28.5922 12.9134C27.1363 12.3104 25.5759 12 24 12ZM18.084 31.536C18.6 30.456 21.744 29.4 24 29.4C26.256 29.4 29.4 30.456 29.916 31.536C28.2353 32.8752 26.1491 33.6031 24 33.6C21.768 33.6 19.716 32.832 18.084 31.536ZM31.632 29.796C29.916 27.708 25.752 27 24 27C22.248 27 18.084 27.708 16.368 29.796C15.0914 28.1335 14.3996 26.096 14.4 24C14.4 18.708 18.708 14.4 24 14.4C29.292 14.4 33.6 18.708 33.6 24C33.6 26.184 32.856 28.2 31.632 29.796ZM24 16.8C21.672 16.8 19.8 18.672 19.8 21C19.8 23.328 21.672 25.2 24 25.2C26.328 25.2 28.2 23.328 28.2 21C28.2 18.672 26.328 16.8 24 16.8ZM24 22.8C23.5226 22.8 23.0648 22.6104 22.7272 22.2728C22.3896 21.9352 22.2 21.4774 22.2 21C22.2 20.5226 22.3896 20.0648 22.7272 19.7272C23.0648 19.3896 23.5226 19.2 24 19.2C24.4774 19.2 24.9352 19.3896 25.2728 19.7272C25.6104 20.0648 25.8 20.5226 25.8 21C25.8 21.4774 25.6104 21.9352 25.2728 22.2728C24.9352 22.6104 24.4774 22.8 24 22.8Z" fill="#390A75"/>
</svg>
